<svg viewBox="0 0 792 612" xmlns="http://www.w3.org/2000/svg"><defs><linearGradient id="e" x1="-185.68" x2="850.34" y1="525.6" y2="525.6" gradientUnits="userSpaceOnUse"><stop offset="0"/><stop stop-color="#010101" offset="0"/><stop stop-color="#363636" offset=".04"/><stop stop-color="#656565" offset=".09"/><stop stop-color="#8e8e8e" offset=".13"/><stop stop-color="#b1b1b1" offset=".18"/><stop stop-color="#cdcdcd" offset=".23"/><stop stop-color="#e3e3e3" offset=".29"/><stop stop-color="#f3f3f3" offset=".35"/><stop stop-color="#fcfcfc" offset=".42"/><stop stop-color="#fff" offset=".52"/><stop stop-color="#fcfcfc" offset=".6"/><stop stop-color="#f2f2f2" offset=".66"/><stop stop-color="#e1e1e1" offset=".72"/><stop stop-color="#cacaca" offset=".77"/><stop stop-color="#ababab" offset=".82"/><stop stop-color="#868686" offset=".87"/><stop stop-color="#595959" offset=".92"/><stop stop-color="#272727" offset=".97"/><stop offset="1"/></linearGradient><linearGradient id="i" x1="-95.03" x2="809.33" y1="297.83" y2="297.83" gradientUnits="userSpaceOnUse"><stop stop-color="#003d5e" offset=".22"/><stop stop-color="#0091d0" stop-opacity="0" offset=".99"/></linearGradient><linearGradient id="h" x1="-95.03" x2="809.33" y1="297.83" y2="297.83" gradientUnits="userSpaceOnUse"><stop stop-color="#003d5e" offset=".67"/><stop stop-color="#0091d0" stop-opacity="0" offset=".99"/></linearGradient><linearGradient id="j" x1="396" x2="396" y1="468.77" y2="18.06" gradientUnits="userSpaceOnUse"><stop stop-color="#0091d0" stop-opacity="0" offset=".01"/><stop stop-color="#002e4b" offset="1"/></linearGradient><radialGradient id="b" cx="139.78" cy="288.15" r="225.58" gradientTransform="matrix(1 0 0 1.01 0 .55)" gradientUnits="userSpaceOnUse"><stop stop-color="#231f20" offset="0"/><stop stop-color="#272424" offset=".12"/><stop stop-color="#343132" offset=".25"/><stop stop-color="#4a4748" offset=".39"/><stop stop-color="#696667" offset=".54"/><stop stop-color="#908e8e" offset=".68"/><stop stop-color="#c0bebf" offset=".83"/><stop stop-color="#f7f7f7" offset=".98"/><stop stop-color="#fff" offset="1"/></radialGradient><radialGradient id="a" cx="715.94" cy="511.44" r="120.84" gradientTransform="matrix(1 0 0 1.01 0 .55)" gradientUnits="userSpaceOnUse"><stop offset=".47"/><stop stop-color="#fff" offset="1"/></radialGradient><radialGradient id="k" cx="350.86" cy="19.09" r="552.64" gradientTransform="matrix(1 0 0 1.01 0 .55)" gradientUnits="userSpaceOnUse"><stop stop-color="#0091d0" offset=".01"/><stop stop-color="#00567e" offset="1"/></radialGradient><clipPath id="g"><path class="cls-4" d="M-9-9h810v630H-9z"/></clipPath><clipPath id="f"><path class="cls-4" data-name="SVGID" d="M-95.03-25.33h904.36V621H-95.03z"/></clipPath><mask id="d" x="-154.65" y="392.05" width="1019.49" height="267.09" maskUnits="userSpaceOnUse"><path fill="url(#e)" d="M-143.79 392.05h1008.6v267.09h-1008.6z"/></mask><mask id="c" x="-113.21" y="-63.68" width="996.05" height="717.45" maskUnits="userSpaceOnUse"><path fill="url(#b)" d="M-108.34-55.07h942.56V650.1h-942.56z"/><ellipse cx="715.94" cy="517.51" rx="120.84" ry="122.14" fill="url(#a)"/></mask><style>.cls-15,.cls-19,.cls-4{fill:none}.cls-10,.cls-11,.cls-14{fill:#fff}.cls-10,.cls-11,.cls-12,.cls-13,.cls-16,.cls-17{mix-blend-mode:overlay}.cls-11,.cls-12,.cls-29{opacity:.5}.cls-15{stroke:#fff}.cls-15,.cls-19{stroke-width:1.08px}.cls-16{opacity:.25}.cls-17,.cls-31{opacity:.2}.cls-19{stroke:#d1d3d4}.cls-22{mix-blend-mode:multiply;fill:url(#j)}.cls-24{opacity:.4}.cls-25{opacity:.9}.cls-26{opacity:.8}.cls-27{opacity:.7}.cls-28{opacity:.6}.cls-30{opacity:.3}.cls-32{opacity:.1}</style></defs><g style="isolation:isolate"><g clip-path="url(#g)"><g clip-path="url(#f)"><path fill="url(#k)" d="M-95.03-25.33h904.36V621H-95.03z"/><g mask="url(#d)"><path class="cls-10" d="M-138 486.42h962.49v74.92H-138z"/><path class="cls-10" d="M-129.95 541.79h962.49v9.86h-962.49zM-129.95 567.68h962.49v5.58h-962.49zM-139.61 469.53h962.49v5.58h-962.49z"/><path class="cls-11" d="M-139.61 577.45h962.49v3.36h-962.49zM-139.61 478.36h962.49v3.36h-962.49zM-139.61 461.71h962.49v3.36h-962.49zM-139.61 498.84h962.49v5.58h-962.49z"/><g class="cls-12"><path class="cls-10" d="M-153.04 556.3h962.49v26.87h-962.49z"/><path class="cls-10" d="M-144.98 576.16h962.49v3.54h-962.49zM-144.98 585.45h962.49v2h-962.49zM-154.65 550.24h962.49v2h-962.49z"/><path class="cls-11" d="M-154.65 588.95h962.49v1.2h-962.49zM-154.65 553.41h962.49v1.2h-962.49zM-154.65 547.44h962.49v1.2h-962.49zM-154.65 560.76h962.49v2h-962.49z"/></g></g><g class="cls-13"><path class="cls-14" d="M1.45 535.65l19.94 11.64 19.96-11.64v-23.28l-19.96-11.64-19.94 11.64zM22.99 573.69l19.95 11.64 19.95-11.64V550.4l-19.95-11.64-19.95 11.64zM1.07 612.09l19.95 11.64 19.95-11.64V588.8l-19.95-11.64L1.07 588.8zM-17.55 230.68L2.4 242.33l19.95-11.65V207.4L2.4 195.76l-19.95 11.64zM5.83 11.37l19.95 11.64 19.95-11.64v-23.28L25.78-23.56 5.83-11.91zM-17.55 154.63L2.4 166.27l19.95-11.64v-23.29L2.4 119.69l-19.95 11.65z"/><path class="cls-15" d="M3.64 193.02l19.95 11.65 19.95-11.65v-23.28L23.59 158.1 3.64 169.74zM-19.82 573.31L.13 584.95l19.96-11.64v-23.28L.13 538.38l-19.95 11.65zM25.48 154.63l19.95 11.64 19.95-11.64v-23.29l-19.95-11.65-19.95 11.65zM-38.81 269.08l19.95 11.65 19.95-11.65V245.8l-19.95-11.65-19.95 11.65zM45.05 535.59L65 547.23l19.95-11.64V512.3L65 500.66 45.05 512.3zM-15.43 49.03L4.52 60.67l19.95-11.64V25.75L4.52 14.1l-19.95 11.65z"/><path class="cls-14" d="M-20.47 497.25L-.52 508.9l19.95-11.65v-23.28L-.52 462.32l-19.95 11.65zM46.74 266.86l19.95 11.65 19.95-11.65v-23.28l-19.95-11.64-19.95 11.64zM4.37 267.6l19.95 11.65 19.95-11.65v-23.28l-19.95-11.65-19.95 11.65zM26.29 305.26l19.95 11.65 19.95-11.65v-23.28l-19.95-11.64-19.95 11.64zM27.01 49.03l19.95 11.64 19.96-11.64V25.75L46.96 14.1 27.01 25.75zM5.83 86.69l19.95 11.64 19.95-11.64V63.41L25.78 51.76 5.83 63.41zM2.1 458.3l45.57 26.59 45.57-26.59v-53.19l-45.57-26.6-45.57 26.6zM48.85 117.14l45.57 26.6 45.58-26.6V63.96l-45.58-26.6-45.57 26.6z"/><path class="cls-14" d="M48.85 117.14l45.57 26.6 45.58-26.6V63.96l-45.58-26.6-45.57 26.6zM-46.12 374.5l45.57 26.59 45.58-26.59v-53.2L-.55 294.71l-45.57 26.59z"/></g><g class="cls-13"><path class="cls-14" d="M39.75 220l11.83-6.9 11.84 6.9v13.82l-11.84 6.9-11.83-6.9zM52.53 197.44l11.83-6.9 11.84 6.9v13.82l-11.84 6.9-11.83-6.9zM39.53 174.67l11.84-6.91 11.83 6.91v13.81l-11.83 6.91-11.84-6.91zM13.53 219.34l11.83-6.9 11.84 6.9v13.82l-11.84 6.9-11.83-6.9zM28.49 400.89l11.83-6.9 11.83 6.9v13.81l-11.83 6.91-11.83-6.91zM42.35 530.97l11.83-6.9 11.84 6.9v13.81l-11.84 6.91-11.83-6.91zM28.49 446l11.83-6.9 11.83 6.9v13.81l-11.83 6.91-11.83-6.91z"/><path class="cls-15" d="M41.05 423.23l11.83-6.91 11.84 6.91v13.81l-11.84 6.9-11.83-6.9zM27.14 197.67l11.83-6.91 11.84 6.91v13.81l-11.84 6.9-11.83-6.9zM29.05 553.29l11.83-6.9 11.84 6.9v13.82l-11.84 6.9-11.83-6.9zM54.01 446l11.83-6.9 11.83 6.9v13.81l-11.83 6.91-11.83-6.91zM15.88 378.12l11.83-6.91 11.83 6.91v13.81l-11.83 6.9-11.83-6.9zM15.24 423.19l11.83-6.9 11.84 6.9V437l-11.84 6.91L15.24 437zM65.61 220.04l11.84-6.9 11.83 6.9v13.81l-11.83 6.91-11.84-6.91zM29.74 508.63l11.83-6.9 11.84 6.9v13.81l-11.84 6.91-11.83-6.91z"/><path class="cls-14" d="M26.75 242.78l11.84-6.91 11.83 6.91v13.81l-11.83 6.91-11.84-6.91zM66.62 379.43l11.83-6.91 11.83 6.91v13.81l-11.83 6.91-11.83-6.91zM67.25 423.22l11.84-6.9 11.83 6.9v13.81l-11.83 6.91-11.84-6.91zM41.48 378.99l11.84-6.9 11.83 6.9v13.81l-11.83 6.91-11.84-6.91zM2.92 400.89l11.84-6.9 11.83 6.9v13.81l-11.83 6.91-11.84-6.91zM54.48 356.66l11.84-6.91 11.83 6.91v13.81l-11.83 6.9-11.84-6.9zM54.92 508.63l11.83-6.9 11.84 6.9v13.81l-11.84 6.91-11.83-6.91zM67.84 531.38l11.83-6.91 11.83 6.91v13.81l-11.83 6.9-11.83-6.9zM40.14 265.88l27.03-15.77 27.03 15.77v31.55l-27.03 15.78-27.03-15.78zM67.87 468.23l27.03-15.77 27.03 15.77v31.55L94.9 515.55l-27.03-15.77z"/><path class="cls-14" d="M67.87 468.23l27.03-15.77 27.03 15.77v31.55L94.9 515.55l-27.03-15.77zM67.87 315.61l27.03-15.77 27.03 15.77v31.55L94.9 362.94l-27.03-15.78zM11.54 315.59l27.03-15.77 27.03 15.77v31.55l-27.03 15.77-27.03-15.77z"/></g><g class="cls-12"><path class="cls-15" d="M-15.73 448.59l8.98-5.24 8.99 5.24v10.49l-8.99 5.25-8.98-5.25z"/><path class="cls-14" d="M-14.97 569.64l8.98-5.25L3 569.64v10.49l-8.99 5.24-8.98-5.24zM-14.49 602.9l8.99-5.25 8.98 5.25v10.48l-8.98 5.25-8.99-5.25zM-35.08 483.41l20.52-11.98 20.53 11.98v23.96l-20.53 11.98-20.52-11.98zM-14.02 521.17l20.53-11.98 20.52 11.98v23.96L6.51 557.11l-20.53-11.98z"/></g><g class="cls-16"><path class="cls-14" d="M90.76 181.98l8.99-5.25 8.99 5.25v10.49l-8.99 5.24-8.99-5.24zM100.47 164.84l8.98-5.24 8.99 5.24v10.49l-8.99 5.25-8.98-5.25zM90.59 147.55l8.99-5.25 8.99 5.25v10.49l-8.99 5.24-8.99-5.24zM70.85 181.47l8.99-5.24 8.98 5.24v10.5l-8.98 5.24-8.99-5.24zM82.21 319.35l8.98-5.24 8.99 5.24v10.49l-8.99 5.24-8.98-5.24zM92.74 418.14l8.98-5.24 8.99 5.24v10.49l-8.99 5.25-8.98-5.25zM82.21 353.61l8.98-5.24 8.99 5.24v10.49l-8.99 5.25-8.98-5.25z"/><path class="cls-15" d="M91.75 336.32l8.99-5.25 8.98 5.25v10.48l-8.98 5.25-8.99-5.25zM81.19 165.01l8.98-5.24 8.99 5.24v10.49l-8.99 5.25-8.98-5.25zM82.64 435.09l8.98-5.24 8.99 5.24v10.49l-8.99 5.25-8.98-5.25zM101.59 353.61l8.99-5.24 8.98 5.24v10.49l-8.98 5.25-8.99-5.25zM72.63 302.06l8.99-5.25 8.99 5.25v10.48l-8.99 5.25-8.99-5.25zM72.15 336.29l8.98-5.24 8.99 5.24v10.49l-8.99 5.24-8.98-5.24zM110.41 182.01l8.98-5.25 8.99 5.25v10.49l-8.99 5.24-8.98-5.24zM83.16 401.18l8.99-5.25 8.99 5.25v10.49l-8.99 5.24-8.99-5.24z"/><path class="cls-14" d="M80.89 199.28l8.99-5.25 8.98 5.25v10.48l-8.98 5.25-8.99-5.25zM111.17 303.05l8.98-5.24 8.99 5.24v10.49l-8.99 5.25-8.98-5.25zM111.65 336.31l8.99-5.24 8.98 5.24v10.49l-8.98 5.25-8.99-5.25zM92.08 302.72l8.99-5.24 8.99 5.24v10.49l-8.99 5.24-8.99-5.24zM62.79 319.35l8.99-5.24 8.99 5.24v10.49l-8.99 5.24-8.99-5.24zM101.95 285.76l8.99-5.25 8.99 5.25v10.49l-8.99 5.24-8.99-5.24zM102.28 401.18l8.99-5.25 8.99 5.25v10.49l-8.99 5.24-8.99-5.24zM112.09 418.45l8.99-5.25 8.99 5.25v10.49l-8.99 5.24-8.99-5.24zM91.06 216.82l20.52-11.98 20.53 11.98v23.96l-20.53 11.98-20.52-11.98zM112.12 370.5l20.53-11.99 20.53 11.99v23.95l-20.53 11.98-20.53-11.98z"/><path class="cls-14" d="M112.12 370.5l20.53-11.99 20.53 11.99v23.95l-20.53 11.98-20.53-11.98zM112.12 254.59l20.53-11.98 20.53 11.98v23.96l-20.53 11.98-20.53-11.99zM69.34 254.57l20.53-11.98 20.52 11.98v23.96l-20.52 11.98-20.53-11.98z"/></g><g class="cls-12"><path class="cls-14" d="M-14.64 175.4l8.98-5.24 8.99 5.24v10.49l-8.99 5.24-8.98-5.24z"/><path class="cls-15" d="M-15.63 93.58l8.99-5.25 8.99 5.25v10.48l-8.99 5.25-8.99-5.25zM-5.79 110.87l8.99-5.24 8.98 5.24v10.49l-8.98 5.25-8.99-5.25z"/><path class="cls-14" d="M3.79 60.31l8.98-5.24 8.99 5.24V70.8l-8.99 5.25-8.98-5.25zM4.27 93.57l8.99-5.24 8.99 5.24v10.49l-8.99 5.24-8.99-5.24zM-15.3 59.98l8.99-5.24 8.99 5.24v10.49l-8.99 5.24-8.99-5.24zM-5.43 43.02l8.99-5.25 8.99 5.25V53.5l-8.99 5.25-8.99-5.25zM-5.1 158.44l8.99-5.25 8.99 5.25v10.48l-8.99 5.25-8.99-5.25zM4.71 175.71l8.99-5.25 8.99 5.25v10.49l-8.99 5.24-8.99-5.24zM-16.32-25.92L4.21-37.9l20.52 11.98v23.96L4.21 10.02-16.32-1.96zM4.74 127.75l20.53-11.98 20.53 11.98v23.96l-20.53 11.98-20.53-11.98z"/><path class="cls-14" d="M4.74 127.75l20.53-11.98 20.53 11.98v23.96l-20.53 11.98-20.53-11.98zM4.74 11.85L25.27-.13 45.8 11.85V35.8L25.27 47.78 4.74 35.8zM-38.04 11.83L-17.51-.15 3.02 11.83v23.96l-20.53 11.98-20.53-11.98z"/></g><g class="cls-13"><path class="cls-15" d="M123.24 348.38l30.94 31.28M154.18 379.66H281.8"/></g><g class="cls-13"><path class="cls-15" d="M81.34 553.59l30.95 31.28M112.29 584.87h127.62"/></g><g class="cls-13"><path class="cls-15" d="M141.5 62.41l30.94-31.28M172.44 31.13h127.63"/></g><g class="cls-13"><path class="cls-15" d="M122.16 468.48l30.95-31.27M153.11 437.21h127.62"/></g><g class="cls-17"><path class="cls-15" d="M153.52 254.59l16.9-17.08M170.42 237.51h69.7"/></g><g class="cls-17"><path class="cls-15" d="M153.52 395.15l16.9 17.08M170.42 412.23h69.7"/></g><g class="cls-17"><path class="cls-15" d="M129.89 180.68l16.9-17.09M146.79 163.59h69.69"/></g><g class="cls-13"><path class="cls-15" d="M67.58 25.41l16.9-17.08M84.48 8.33h69.7"/></g><g class="cls-13"><path class="cls-14" d="M112.32 552.39a3 3 0 010-4.2l25.93-3.19 3.19-26.21a2.92 2.92 0 014.16 0l6.93 7c1.15 1.16-2.91 30.14-2.91 30.14s-29.22 4.66-30.36 3.5zM106.81 522a3 3 0 010-4.2l4.65-4.7a2.92 2.92 0 014.16 0l7.83 7.92c1.15 1.16.76 9.6.76 9.6s-8.42.46-9.57-.7z"/><path class="cls-14" d="M119.36 534.7l9 9.08c1.15 1.16 8.42-.46 8.42-.46s1.54-7.28.39-8.44l-9-9.08a2.89 2.89 0 00-2.78-.78 62.67 62.67 0 01.08 6.87 61.14 61.14 0 01-6.86 0 3 3 0 00.75 2.81z"/></g><g class="cls-13"><path class="cls-14" d="M187.89 93.62a2.92 2.92 0 01-4.16 0l-3.19-26.21-25.93-3.22a3 3 0 010-4.21l6.94-7c1.14-1.16 29.81 3 29.81 3s4.61 29.53 3.46 30.69zM157.84 99.19a2.92 2.92 0 01-4.16 0l-4.68-4.7a3 3 0 010-4.2l7.84-7.92c1.14-1.16 9.49-.77 9.49-.77s.46 8.51-.69 9.67z"/><path class="cls-14" d="M170.39 86.51l9-9.08c1.15-1.17-.46-8.51-.46-8.51s-7.2-1.56-8.35-.39l-9 9.08a3 3 0 00-.77 2.81 58.81 58.81 0 016.8-.08 62.39 62.39 0 010 6.93 2.92 2.92 0 002.78-.76z"/></g><g class="cls-12"><path class="cls-14" d="M199.18 567.47a3 3 0 01-2.94-3l16.08-20.81-16.08-20.82a3 3 0 012.94-3H209c1.62 0 19 23.39 19 23.39s-17.4 24.18-19 24.18zM174 549.93a3 3 0 01-2.94-3v-6.64a3 3 0 012.94-3h11.08c1.63 0 7.26 6.25 7.26 6.25s-5.63 6.34-7.26 6.34z"/><path class="cls-14" d="M191.78 549.93h12.7c1.63 0 5.63-6.34 5.63-6.34s-4-6.25-5.63-6.25h-12.7a3 3 0 00-2.51 1.44 62.34 62.34 0 014.86 4.81 60.53 60.53 0 01-4.87 4.88 2.94 2.94 0 002.52 1.46z"/></g><g class="cls-12"><path class="cls-15" d="M212.07 584.82a3 3 0 01-2.94-3L225.21 561l-16.08-20.81a3 3 0 012.94-3h9.81c1.62 0 19 23.39 19 23.39s-17.4 24.18-19 24.18zM186.92 567.28a3 3 0 01-2.94-3v-6.64a3 3 0 012.94-3H198c1.63 0 7.26 6.24 7.26 6.24s-5.63 6.35-7.26 6.35z"/><path class="cls-15" d="M204.67 567.28h12.7c1.63 0 5.64-6.35 5.64-6.35s-4-6.24-5.64-6.24h-12.7a2.93 2.93 0 00-2.51 1.44 61.11 61.11 0 014.86 4.8 59.93 59.93 0 01-4.87 4.89 2.94 2.94 0 002.52 1.46z"/></g><g class="cls-12"><path class="cls-15" d="M273.23 417.66a3 3 0 01-2.94-3l16.08-20.81-16.08-20.82a3 3 0 012.94-3H283c1.63 0 19 23.39 19 23.39s-17.39 24.18-19 24.18zM248.08 400.12a3 3 0 01-2.94-3v-6.64a3 3 0 012.94-3h11.08c1.62 0 7.25 6.25 7.25 6.25s-5.63 6.34-7.25 6.34z"/><path class="cls-15" d="M265.82 400.12h12.71c1.62 0 5.63-6.34 5.63-6.34s-4-6.25-5.63-6.25h-12.71a2.91 2.91 0 00-2.5 1.44 62.34 62.34 0 014.86 4.81 62.43 62.43 0 01-4.87 4.88 2.91 2.91 0 002.51 1.46z"/></g><g class="cls-16"><path class="cls-14" d="M161.37 235.17a1.89 1.89 0 01-2.68 0l-2.06-16.91-16.72-2.07a1.94 1.94 0 010-2.72l4.47-4.52c.74-.74 19.23 1.9 19.23 1.9s3 19.05 2.23 19.8zM142 238.76a1.89 1.89 0 01-2.69 0l-3-3a1.93 1.93 0 010-2.71l5.05-5.11c.74-.75 6.13-.49 6.13-.49s.29 5.48-.45 6.23z"/><path class="cls-14" d="M150.08 230.58l5.79-5.86c.74-.74-.29-5.48-.29-5.48s-4.64-1-5.38-.26l-5.8 5.86a1.94 1.94 0 00-.49 1.81 38.71 38.71 0 014.38-.05 41.41 41.41 0 010 4.48 1.91 1.91 0 001.79-.5z"/></g><g class="cls-16"><path class="cls-14" d="M136.36 156.61a1.88 1.88 0 01-2.68 0l-2.06-16.9-16.72-2.08a1.93 1.93 0 010-2.71l4.47-4.52c.74-.75 19.23 1.89 19.23 1.89s3 19.05 2.23 19.8zM117 160.2a1.88 1.88 0 01-2.68 0l-3-3a1.93 1.93 0 010-2.71l5-5.1c.74-.75 6.13-.5 6.13-.5s.29 5.49-.45 6.24z"/><path class="cls-14" d="M125.07 152l5.8-5.85c.74-.75-.3-5.49-.3-5.49s-4.64-1-5.38-.25l-5.8 5.85a2 2 0 00-.49 1.82 39.83 39.83 0 014.38-.06 41.41 41.41 0 010 4.48 1.86 1.86 0 001.79-.5z"/></g><g class="cls-16"><path class="cls-14" d="M132.24 457.61a1.92 1.92 0 010-2.71l16.76-2.08 2.06-16.9a1.88 1.88 0 012.68 0l4.47 4.52c.74.75-1.88 19.44-1.88 19.44s-18.84 3-19.58 2.25zM128.68 438a1.93 1.93 0 010-2.71l3-3a1.88 1.88 0 012.68 0l5 5.11c.74.75.49 6.19.49 6.19s-5.43.3-6.17-.45z"/><path class="cls-14" d="M136.77 446.2l5.8 5.86c.74.75 5.43-.3 5.43-.3s1-4.69.25-5.44l-5.8-5.86a1.88 1.88 0 00-1.79-.5 39.58 39.58 0 01.05 4.43 37.9 37.9 0 01-4.43 0 1.93 1.93 0 00.49 1.81z"/></g><g class="cls-16" mask="url(#c)"><path class="cls-19" d="M869.67 653.35c-101.51-86.31-591.32-399-978-312.68M870 635.88C769.6 552.46 276.85 255.31-108.46 339M870.3 618.4c-99.25-80.53-594.94-362.14-978.88-281.15M870.61 600.92c-98.12-77.63-596.74-343.7-979.31-265.38M870.93 583.45c-97-74.74-598.56-325.28-979.75-249.61M871.24 566c-95.86-71.84-600.36-306.85-980.17-233.84M871.55 548.49C776.82 479.54 269.39 260.07-109 330.42M871.87 531c-93.6-66.05-604-270-981-202.3M872.18 513.54C779.71 450.38 266.4 262-109.29 327M872.5 496.06c-91.35-60.27-607.59-233.12-981.91-170.76M872.81 478.58c-90.21-57.37-609.4-214.69-982.33-155M873.13 461.1C784 406.63 261.92 264.84-109.64 321.88M873.44 443.63c-88-51.59-613-177.83-983.2-123.46M873.76 426.15c-86.83-48.69-614.83-159.4-983.64-107.69M874.07 408.67c-85.7-45.79-616.63-141-984.07-91.91M874.38 391.19C789.82 348.3 256 268.65-110.11 315.05M874.7 373.72c-83.44-40-620.25-104.11-984.93-60.38M875 356.24c-82.3-37.11-622-85.68-985.36-44.61M875.33 338.76c-81.18-34.21-623.86-67.25-985.8-28.84M875.64 321.29C795.59 290 250 272.47-110.58 308.22M876 303.81c-78.92-28.43-627.48-30.39-986.66 2.7M876.27 286.33c-77.79-25.53-629.28-12-987.09 18.47M876.59 268.85c-76.67-22.63-631.1 6.48-987.53 34.24M876.9 251.38c-75.53-19.75-632.9 24.9-988 50M877.21 233.9c-74.4-16.85-634.7 43.33-988.38 65.78M877.53 216.42C804.26 202.47 241 278.19-111.29 298M877.84 198.94c-72.14-11.06-638.32 80.2-989.25 97.32M878.16 181.47c-71-8.17-640.13 98.62-989.69 113.08M878.47 164c-69.88-5.27-641.94 117.06-990.12 128.86M878.79 146.51C810 144.13 235 282-111.76 291.14M879.1 129c-67.62.52-645.55 153.92-991 160.4M879.42 111.56C812.92 115 232.05 283.91-112 287.72M879.73 94.08C814.36 100.39 230.56 284.86-112.12 286M880 76.6c-64.23 9.2-651 209.21-992.27 207.71M880.36 59.13C817.25 71.22 227.57 286.77-112.35 282.6M880.67 41.65c-62 15-654.59 246.07-993.14 239.24M881 24.17c-60.85 17.88-656.4 264.5-993.58 255M881.3 6.69c-59.72 20.78-658.2 282.94-994 270.78M881.62-10.78C823 12.89 221.6 290.58-112.82 275.77M881.93-28.26C824.47-1.7 220.11 291.53-112.94 274.06M882.25-45.74c-56.34 29.46-663.63 338.23-995.31 318.09M882.56-63.22c-55.2 32.36-665.44 356.66-995.74 333.86"/></g><g class="cls-13"><path class="cls-15" d="M314.26 33.81a3 3 0 01-2.94-3L327.4 10l-16.08-20.79a3 3 0 012.94-3h9.8c1.63 0 19 23.38 19 23.38s-17.4 24.19-19 24.19zM289.11 16.26a3 3 0 01-2.94-3V6.65a3 3 0 012.94-3h11.08c1.62 0 7.26 6.24 7.26 6.24s-5.64 6.34-7.26 6.34z"/><path class="cls-15" d="M306.86 16.26h12.7c1.63 0 5.63-6.34 5.63-6.34s-4-6.24-5.63-6.24h-12.7a2.93 2.93 0 00-2.51 1.44 61.11 61.11 0 014.86 4.8 63.68 63.68 0 01-4.87 4.89 2.91 2.91 0 002.52 1.45z"/></g></g><path style="mix-blend-mode:multiply" fill="url(#i)" d="M-95.03-25.33h904.36V621H-95.03z"/><path style="mix-blend-mode:multiply" fill="url(#h)" opacity=".5" d="M-95.03-25.33h904.36V621H-95.03z"/></g><path class="cls-22" d="M-9-9h810v630H-9z"/><path class="cls-22" d="M-9-9h810v630H-9z"/><path d="M135.75 282.13h-2.26l21.19-26.48h2.25zM123.83 296h-2l-18.12 18.11h2zm5.48 0h-2l-18.12 18.11h2zm22.39-40.31h-2.26l-21.18 26.48h2.26zm-21.2 34.27H-2v1.79h132.5zm34.39-7.79h2.26l21.18-26.48h-2.26zm28.07-22l-17.61 22h2.26L193 263zm0 6.54l-12.37 15.47h2.26L193 269.49zm-54 28.88h-4.47v18.65h4.47zm54-39.89h-1.66l-21.18 26.48h2.26s17.12-21.46 20.62-25.77zm-30.79 0h-2.26l-21.18 26.48H141zM193 273.2l-7.14 8.93h2.26L193 276zm0 6.54l-1.91 2.39H193zM118.35 296h-2l-18.14 18.07h2zm-64 18.11h2c6.16-6.15 12.22-12.22 18.11-18.11h-2zm7.5 0C68 307.92 74.1 301.85 80 296h-2l-18.14 18.07zm1.7-18.11h-2l-18.13 18.07h2c6.18-6.15 12.24-12.22 18.13-18.07zm-24.39 51.19H37.8v4.64h1.36zm4.68 0h-1.36v4.64h1.36zm5.06-33.12h2c6.18-6.15 12.24-12.22 18.1-18.07h-2zM58.07 296h-2l-18.13 18.07h2c6.18-6.15 12.24-12.22 18.13-18.07zm43.84 0h-2l-18.14 18.07h2zm11 0h-2l-18.18 18.07h2zm-44.6 58.11H45.7V331.5h22.57zm-3.41-19.25H49.06v15.84H64.9zM52.59 296h-2l-18.13 18.07h2c6.18-6.15 12.24-12.22 18.13-18.07zm43.84 0h-2L76.3 314.07h2zM91 296h-2l-18.18 18.07h2C79 307.92 85.06 301.85 91 296zm-7.5 0l-18.16 18.07h2c6.16-6.15 12.22-12.22 18.11-18.11zm23.94 0h-2l-18.19 18.07h2zm95.56 3h1.37v-4.65H203zm-3.42-19.14h1.56l4.36-5.45H204zm3.61 0h1.56l4.35-5.45h-1.56zm7.21 0h1.6c2.44-3.06 4.36-5.45 4.36-5.45h-1.56s-1.92 2.37-4.36 5.43zm3.61 0h1.55l4.36-5.45h-1.52zm-7.22 0h1.56l4.36-5.45h-1.56zm10.82 0h1.56l4.36-5.45H222zM198.36 299h1.37v-4.65h-1.37zm72.08-24.59h-1.56s-1.92 2.39-4.36 5.45h1.56c2.44-3.08 4.36-5.47 4.36-5.47zm3.47 0h-1.56s-1.92 2.39-4.36 5.45h1.56c2.45-3.08 4.36-5.47 4.36-5.47zm-19.45 0s-1.92 2.39-4.36 5.45h1.56l4.36-5.45zm10.82 0l-4.36 5.45h1.55l4.36-5.45zm-5.66 0h-1.56l-4.35 5.45h1.55zm3.61 0h-1.56s-1.92 2.39-4.36 5.45h1.56c2.44-3.08 4.36-5.47 4.36-5.47zm.76 26.72h-7.45v7.45H264zm-31.92-21.27h1.56c2.44-3.06 4.36-5.45 4.36-5.45h-1.56zm-39 15.92H142v1.79h51.05zm59.43 5.43H142.11v7.32h110.41zm-56.13-26.32v1.94l1.94-2.42h-1.56zm0 5h1.18l4.36-5.45h-1.56l-4 5zM144 282.13h2.26l21.18-26.48h-2.26zm10.46 0h2.26l21.18-26.48h-2.3zm-5.23 0h2.26l21.18-26.48h-2.26zm75.67-2.29h1.56l4.35-5.45h-1.55zm18 0h1.56l4.35-5.45h-1.55zm-14.42 0H230l4.35-5.45h-1.55s-1.89 2.39-4.33 5.45zm-7.21 0h1.56l4.35-5.45h-1.56zm-61.6 2.29h2.25l21.19-26.48h-2.26zm92.75-7.74h-1.56l-4.36 5.45h1.56zm-16.73 5.45h1.56l4.35-5.45H240zm3.6 0h1.56l4.36-5.45h-1.56zM86.4 282.13h2.26l21.18-26.48h-2.26zm-45.84-63h99.54v-2.62H40.56zm56.81 13.66H40.56v1.79h56.81zm96.7-50h-207v6.73h207zM82.33 197.72v-4.36h-1.28v4.36zm-45.54 57.93h-2.26l-21.18 26.48h2.26zM40.48 214h99.58v-2.48H40.48zm37.45-20.64h-1.28v4.36h1.28zm39.87 88.77h2.26l21.18-26.48H139zm159.71-7.74H276l-4.35 5.45h1.55zm-196.14 7.74h2.26l21.18-26.48h-2.26zm10.27 0h2.25l21.18-26.48h-2.25zm15.69 0h2.26l21.18-26.48h-2.26zm5.23 0h2.27L136 255.65h-2.26zm-15.69 0h2.26l21.18-26.48h-2.26zm5.23 0h2.26l21.18-26.48h-2.26zm-26 0h2.3l21.18-26.48h-2.26zm255-2.72v-1.94l-1.9 2.37h1.56c.24-.15.31-.29.42-.43zM130.5 303.7l-10.37 10.37h2l8.35-8.35zm200.68-29.31H330s-1.92 2.39-4.36 5.45h1.56l3.94-4.93zM130.5 311.2v-2l-4.89 4.89h2c.98-.98 1.94-1.93 2.89-2.89zm139-99.85v9.81H40.56v5.36h432.71v-5.36h-64.4v-5.37h64.4V214h-64.4v-2.65zm-43.94 33.13v-4.65h-1.36v4.65zm-4.68 0v-4.65h-1.36v4.65zM-2.68 222.1l16.91-16.91h-6.3L-2.68 215.8zm133.18 76.12l-15.85 15.85h2l13.83-13.83zM-2.68 249.28l40.46-40.46v-3.63h-2.67c-9.88 9.89-26.39 26.4-37.79 37.81zm0-13.59l30.5-30.5h-6.3c-6.36 6.37-15.47 15.48-24.2 24.2zm0-30.5v3.32l3.32-3.32zm-16.39-.44v117.1H-7.9v-117.1zM-19.3 351h53.17v-2.89H-19.3zm165.77-95.3h-2.26L123 282.13h2.26zM-2.19 299.4v2l5.47-5.4h-2zm23.28-43.75h-2.26l-21.18 26.48h2.26zm-23.74 10.06l8-10.06H3.13l-5.78 7.23zm2.23 48.36h2L19.72 296h-2zm-1.77-9.19v2L8.76 296h-2zm-.46-48.54v2.83c1.71-2.17 2.81-3.52 2.81-3.52H-2.1zm.46 54v2L14.24 296h-2zm-.46-31.57l18.51-23.14H13.6L-2.65 276zm40.43-49.07L16.7 250.79H23L37.78 236zM5.06 314.07h2L25.2 296h-2zm26.5-58.42H29.3L8.12 282.13h2.25zm-5.23 0h-2.27L2.88 282.13h2.26zm10.26-4.86l1.19-1.19v-6.3l-7.49 7.49zm-39.24 21.46l13.28-16.6H8.37l-11 13.77zm40.43-56.14L3.11 250.79h6.3l28.37-28.38zm1.73 66h2.26L63 255.65h-2.31zm5.23 0H47l21.18-26.48h-2.26zm-10.46 0h2.26l21.18-26.48h-2.26zm15.69 0h2.26l21.18-26.48h-2.26zm20.93 0h2.26l21.19-26.48h-2.27zm-5.23 0h2.26l21.18-26.48h-2.26zm-55.13 31.96h2L30.68 296h-2zm44.67-31.94h2.26l21.18-26.48h-2.26zm5.23 0h2.26l21.18-26.48h-2.26zM21.5 314.07h2c6.16-6.15 12.22-12.22 18.11-18.11h-2zm5.48 0h2c6.16-6.15 12.22-12.22 18.11-18.11h-2zm-11 0h2L36.16 296h-2c-5.92 5.85-11.98 11.92-18.16 18.07zm7.79-31.94h2.26l21.18-26.48H45zm-5.23 0h2.26L42 255.65h-2.24zm10.47 0h2.26l21.18-26.48h-2.22zm78.69-114.36L99 156.92h-1.44l8.69 10.85zm-16.84 0l-8.69-10.85h-1.45l8.68 10.85zm-3.37 0l-8.69-10.85h-1.45L86 167.77zm-3.37 0l-8.68-10.85H74l8.69 10.85zm26.95 0l-8.69-10.85h-1.45l8.68 10.85zm-6.74 0s-4.78-6-8.69-10.85h-1.45l8.69 10.85zm-6.74 0l-8.68-10.85h-1.46l8.69 10.85zm3.37 0l-8.68-10.85h-1.46l8.69 10.85zm-6.73 0l-8.69-10.85h-1.45l8.68 10.85zm-20.21 0l-8.69-10.85h-1.46l8.69 10.85zm-4.7 0h1.46l-8.69-10.85h-1.46zm10 0h1.45l-8.68-10.85h-1.48zm-48.94 0L25.73 162v1.82l3.17 4zm40.75-21.27h-1.36v4.64h1.36zm-4.68 0h-1.36v4.64h1.36zm10.94 21.27l-8.69-10.85h-1.46l8.69 10.85zm43.78 0l-8.68-10.85H111l8.69 10.85zm107.9 22.93v.09h.07zm-92-33.8h-7.81v11h18.83zm68.37 18.81h21v21h-21zm3.13 17.9h14.73v-14.77h-14.77zm10 25.37h2.24l6.12-7.65h-2.24zm15.95-28.19l-4.59-5.73h-.76l4.58 5.73zm-3.56 0l-1.85-2.32v1l1.08 1.35zm1.78 0l-3.63-4.54v1l2.86 3.58zm3.49 0l-4.59-5.73h-.76l4.58 5.73zm-210.46-23H27l-1.26-1.57zm88.71 0l-8.69-10.85h-1.46c3.91 4.87 8.69 10.85 8.69 10.85zm3.37 0l-8.69-10.85h-1.46l8.69 10.85zm9.71-8.9l-1.56-2h-1.45l3 3.77zm0 8.9v-.48l-8.3-10.37h-1.45l8.68 10.85zm0-4.69l-4.93-6.16h-1.45l6.38 8zm-3 4.69s-4.78-6-8.69-10.85h-1.47l8.69 10.85zM340 315.56h1.36v-4.64H340zm4.68 0H346v-4.64h-1.36zm85.85 3h3.41v-8.18h-3.41zm6.47 0h3.41v-8.18H437zm-250.67 39.9h1.36v-4.66h-1.36zM33.72 167.77l-8-10v1.82l6.54 8.17zm108.49 146.36h192.48v-1.79H142.21zm307.7 4.41h3.41v-8.18h-3.41zm23.36-78.94h-9v3.57h9zM444 263.52V271h7.46v-7.45zm29.26 39.53h-7.66v3.57h7.66zm-29.83 15.49h3.4v-8.18h-3.4zM-19.3 357H181v-1.78H-19.3zm216-97.53h259.07v15.09H334v3.57h125.35V255.9H196.68zm233.82 24.63h22.81v22.57h-22.81zm3.4 19.2h16v-15.84h-16zM191 358.44h1.36v-4.64H191zM50.57 167.77l-8.69-10.85h-1.46c3.91 4.87 8.69 10.85 8.69 10.85zm6.73 0l-8.68-10.85h-1.46l8.69 10.85zm12.7 25.8h-86.85v-14.5h215.57v14.28H86.2v3.36h115.88v-21h-222.3v21.22H70zm-22.8-25.8l-8.69-10.85h-1.45l8.68 10.85zm-10.11 0l-8.68-10.85H27l8.69 10.85zm6.74 0l-8.69-10.85h-1.45l8.69 10.85zm-3.37 0l-8.69-10.85h-1.45L39 167.77zm13.47 0l-8.68-10.85h-1.46l8.69 10.85zm161.46 1.1H23.67v-12h-43.53v14.63h235.25zM62.05 147H-19.6v3.58h81.65zM-44.27 285.64h3V281h-3zM64 167.77l-8.69-10.85H53.9l8.68 10.85zm-3.37 0L52 156.92h-1.47l8.69 10.85zm6.74 0l-8.69-10.85h-1.41L66 167.77zM166.61 219h2.24l6.11-7.65h-2.24zm-25.08-7.36v2.8l2.48-3.09h-2.25c-.07.08-.15.17-.23.27zm66.62 7.36h2.24l6.11-7.65h-2.24zm-5.2 0h2.25l6.11-7.65h-2.24zm18.75-7.65h-2.24l-6.12 7.65h2.24zM141.53 219h1.55l6.12-7.65H147l-5.43 6.78zm-38.89 12.34V236H104v-4.65zm4.68 0V236h1.36v-4.65zM171.8 219h2.2l6.12-7.65h-2.24c-3.41 4.28-6.08 7.65-6.08 7.65zm42.45 22.28H40.56v1.79h173.69zM177 219h2.24l6.12-7.65h-2.24zm104.13 55.41h-1.56l-4.36 5.45h1.56c2.43-3.08 4.35-5.47 4.35-5.47zM187.38 219h2.24l6.12-7.65h-2.25zm5.19 0h2.24l6.12-7.65h-2.24c-3.45 4.28-6.12 7.65-6.12 7.65zm5.19 0H200l6.12-7.65h-2.24zm-15.58 0h2.25l6.11-7.65h-2.24zm120.57 55.41h-1.56l-4.36 5.45h1.56zm-3.61 0h-1.55l-4.36 5.45h1.56zM161.41 219h2.25l6.11-7.65h-2.24zm144.94 55.41h-1.55s-1.92 2.39-4.36 5.45H302zm-10.81 0H294l-4.36 5.45h1.56c2.42-3.08 4.34-5.47 4.34-5.47zm-3.61 0h-1.56l-4.37 5.43h1.56zm-7.21 0h-1.56l-4.35 5.45h1.55zm3.61 0h-1.56l-4.36 5.45H284zm32.45 0h-1.56s-1.92 2.39-4.36 5.45h1.56zm118.76-10.64H196.68v7.15h242.86zm-115.16 10.62h-1.56l-4.35 5.45H320zm3.61 0h-1.56s-1.92 2.39-4.36 5.45h1.56c2.44-3.06 4.37-5.45 4.37-5.45zm-18 0h-1.59l-4.35 5.45h1.55zm3.61 0H312l-4.36 5.45h1.56c2.45-3.06 4.37-5.45 4.37-5.45zm3.6 0h-1.56l-4.35 5.45h1.55zm-50-63.06h-1l-6.13 7.67h2.24l4.85-6.06zM156.42 219h2.24l6.12-7.65h-2.25zm101.1-28.19l-4.59-5.73h-.76l4.58 5.73zm-3.56 0l-4.58-5.73h-.77l4.59 5.73zm5.34 0l-4.59-5.73h-.77l4.59 5.73zm3.55 0l-4.58-5.73h-.77l4.58 5.73zm-1.78 0l-4.58-5.73h-.77l4.59 5.73zm3.36 0v-.26l-4.43-5.49h-.77c2.07 2.57 4.59 5.73 4.59 5.73zm-12.24 0l-4.59-5.73h-.77l4.59 5.73zm-1.78 0l-4.59-5.73h-.77l4.59 5.73zm-8.89 0l-4.58-5.73h-.77l4.58 5.73zm-1.78 0l-4.58-5.73h-.77l4.58 5.73zm3.56 0l-4.59-5.73H238l4.58 5.73zm1.78 0l-4.59-5.73h-.77l4.59 5.73zm3.55 0l-4.63-5.75h-.76l4.58 5.73zm-1.78 0l-4.58-5.73h-.77l4.58 5.73zm8.89 0l-4.58-5.73h-.77l4.58 5.73zM244.49 219h2.25l6.11-7.65h-2.24zm10.39 0h2.24l6.12-7.65H261zm-5.19 0h2.24s2.67-3.35 6.12-7.65h-2.25zm17.47-2.37c-1.17 1.47-1.9 2.37-1.9 2.37h1.9zM238 190.79l-4.59-5.73h-.77l4.59 5.73zM151.23 219h2.24l6.11-7.65h-2.24zm-5.2 0h2.25l6.11-7.65h-2.24zm118.4-32.89l-.83-1h-.77l1.6 2zM223.72 219H226l6.11-7.65h-2.24zm5.39-23.18h66.74v-2.73h-66.74zm35.32-7.49l-2.61-3.25h-.77l3.38 4.21zM234.11 219h2.24l6.12-7.65h-2.25zm5.19 0h2.25l6.11-7.65h-2.24zm-10.38 0h2.24s2.67-3.35 6.12-7.65H235z" opacity=".4" fill="#fff"/><g class="cls-24"><path class="cls-14" d="M788.661 381.883l.497-.88 22.638 12.788-.496.88zM690.72 426.09l1.1-.3 2.86-.93c1.18-.4 2.58-.8 4-1.37l4.56-1.74c1.53-.63 3-1.32 4.46-1.94s2.73-1.26 3.83-1.82l3.7-1.87 11.2 20.88-4.38 2.21c-1.31.67-2.86 1.44-4.55 2.17s-3.48 1.55-5.31 2.3l-5.41 2.08c-1.72.67-3.38 1.15-4.78 1.62l-3.41 1.1-1.31.37zM655.41 431l4.15-.07h2l2.24-.15c1.56-.12 3.22-.17 4.87-.38l4.84-.57 4.2-.69c1.23-.2 2.26-.37 3-.54l1.12-.25 4.87 23.17-1.33.29c-.84.19-2.06.4-3.52.65s-3.17.53-5 .81l-5.76.68c-2 .24-3.94.32-5.79.46l-2.66.17-2.39.06-4.94.08zM620.19 425.72l4 1.11c1.19.35 2.61.66 4.13 1s3.12.74 4.76 1a119.09 119.09 0 0013.15 1.74l-1.88 23.6a142.41 142.41 0 01-15.62-2.07c-2-.32-3.86-.78-5.67-1.18s-3.48-.79-4.9-1.2l-4.74-1.31zM587.87 410.8l3.52 2.19c1.05.68 2.34 1.35 3.69 2.12s2.8 1.57 4.3 2.29 3 1.51 4.38 2.13l3.9 1.7c1.13.52 2.11.84 2.78 1.12l1.07.4-8.41 22.13-1.27-.48c-.8-.33-2-.72-3.31-1.33l-4.63-2c-1.69-.74-3.43-1.65-5.2-2.52s-3.5-1.82-5.12-2.72-3.13-1.72-4.38-2.52l-4.19-2.64zM561 387.34l2.74 3.12 3 3.07c.54.56 1.09 1.15 1.68 1.71l1.8 1.7c2.39 2.32 5 4.41 6.86 6s3.29 2.54 3.29 2.54l-14.3 18.87s-1.58-1.18-3.9-3-5.32-4.42-8.17-7.17l-2.14-2c-.7-.68-1.36-1.38-2-2l-3.51-3.65-3.26-3.72z"/><g class="cls-25"><path class="cls-14" d="M541.93 357.33l.46 1c.28.67.76 1.59 1.31 2.7l1.92 3.78c.76 1.35 1.58 2.79 2.4 4.23s1.72 2.83 2.55 4.15 1.59 2.55 2.33 3.55l2.41 3.38-19 14-2.86-4c-.88-1.2-1.78-2.66-2.78-4.21s-2.08-3.21-3-4.93l-2.85-5-2.27-4.49c-.66-1.32-1.22-2.41-1.56-3.21l-.55-1.23z"/></g><g class="cls-26"><path class="cls-14" d="M532 323.12s.06.41.18 1.13l.5 3c.1.61.21 1.28.33 2s.31 1.44.47 2.2c.34 1.52.65 3.15 1.08 4.76s.87 3.2 1.28 4.7.91 2.87 1.29 4.06c.74 2.38 1.36 3.92 1.36 3.92L516.23 357s-.73-1.83-1.62-4.65c-.46-1.42-1-3.05-1.53-4.83l-1.53-5.6c-.5-1.91-.88-3.85-1.29-5.66-.19-.91-.37-1.79-.55-2.62s-.28-1.63-.4-2.36c-.25-1.46-.45-2.68-.59-3.53s-.21-1.34-.21-1.34z"/></g><g class="cls-27"><path class="cls-14" d="M532.09 287.49s-.21 1.65-.53 4.12c-.18 1.23-.27 2.68-.4 4.23s-.27 3.2-.3 4.86A117.44 117.44 0 00531 314l-23.62 1.56a141.68 141.68 0 01-.21-15.79c0-2 .21-3.93.35-5.78s.27-3.56.48-5c.38-2.93.63-4.89.63-4.89z"/></g><g class="cls-28"><path class="cls-14" d="M542.2 253.37l-1.66 3.8c-.52 1.13-1 2.5-1.57 3.95s-1.14 3-1.64 4.58-1.07 3.14-1.47 4.64-.8 2.9-1.13 4.1-.53 2.21-.7 2.92-.26 1.11-.26 1.11l-23.1-5.15.33-1.32c.2-.84.43-2.05.83-3.47s.85-3.08 1.35-4.86 1.14-3.64 1.74-5.52 1.29-3.72 2-5.44 1.24-3.35 1.86-4.69l2-4.51z"/></g><g class="cls-29"><path class="cls-14" d="M561.51 223.43l-2.69 3.17c-.79 1-1.65 2.13-2.6 3.36l-1.46 1.91c-.46.68-.94 1.36-1.41 2-1.94 2.69-3.65 5.54-5 7.66s-2 3.61-2 3.61l-20.75-11.38s.94-1.73 2.43-4.29 3.6-5.89 5.9-9.11l1.69-2.41 1.72-2.28c1.13-1.47 2.17-2.85 3.11-4l3.19-3.77z"/></g><g class="cls-24"><path class="cls-14" d="M588.5 200.17l-1 .61c-.61.4-1.5.93-2.51 1.67l-3.46 2.46c-1.28.89-2.54 2-3.86 3l-1.94 1.55L574 211c-1.16 1-2.27 2-3.18 2.83l-3 2.88-16.67-16.81 3.56-3.43c1.08-1 2.4-2.14 3.79-3.36l2.15-1.87 2.31-1.84c1.55-1.21 3.07-2.48 4.59-3.55l4.11-2.93c1.2-.87 2.26-1.5 3-2l1.14-.72z"/></g><g class="cls-30"><path class="cls-14" d="M620.86 185.39s-.4.1-1.09.33l-2.86.93c-2.39.72-5.47 1.95-8.57 3.15s-6.08 2.64-8.27 3.81l-2.68 1.39c-.65.32-1 .54-1 .54l-11.27-20.82s.42-.26 1.19-.64l3.18-1.61c2.6-1.37 6.21-2.94 9.82-4.51s7.35-2.88 10.19-3.75l3.4-1.1c.82-.27 1.3-.39 1.3-.39z"/></g><g class="cls-31"><path class="cls-14" d="M656.15 180.35l-4.15.07c-1.24 0-2.69.12-4.25.22s-3.21.19-4.86.41a116.25 116.25 0 00-13.11 2.1l-5-23.15a140.37 140.37 0 0115.61-2.49c2-.26 3.94-.36 5.79-.49s3.57-.25 5-.26l4.93-.09z"/></g><g class="cls-32"><path class="cls-14" d="M691.38 185.45l-4-1.1c-1.19-.35-2.62-.62-4.13-1l-2.34-.52c-.8-.17-1.62-.3-2.44-.45-1.63-.27-3.25-.61-4.8-.79l-4.22-.53c-1.23-.16-2.27-.2-3-.27l-1.14-.09 1.77-23.61 1.35.11c.86.08 2.09.14 3.56.32l5 .64c1.84.21 3.77.61 5.71.93 1 .18 1.94.34 2.89.54l2.78.61c1.8.43 3.49.76 4.91 1.17l4.75 1.31z"/></g><path class="cls-14" d="M713.22 412.34l1.89-1.08c1.24-.73 3.14-1.7 5.46-3.24a115.22 115.22 0 0019-14.79l2.88-2.79 2.88-3.07c1-1 1.94-2.17 2.91-3.31s2-2.3 2.92-3.56a117.63 117.63 0 0011.14-16.93 121.08 121.08 0 0013.7-73.9 120.57 120.57 0 00-7.49-28.67c-.44-1.2-1-2.36-1.49-3.54s-1-2.34-1.57-3.52-1.17-2.31-1.75-3.48l-.88-1.74c-.31-.57-.64-1.13-1-1.71l-1.94-3.41c-.67-1.14-1.4-2.24-2.11-3.36-1.38-2.26-3-4.4-4.52-6.59a121.29 121.29 0 00-10.53-12.37c-1.87-2-3.93-3.83-5.94-5.73-1-.91-2.1-1.79-3.15-2.7l-1.59-1.34-1.66-1.27a121.09 121.09 0 00-29.32-16.84 121.34 121.34 0 00-51.24-8.55 120.65 120.65 0 00-34.69 7 121.67 121.67 0 00-31.27 16.75 124.25 124.25 0 00-13.46 11.62 120.62 120.62 0 00-21 28.27 121.21 121.21 0 00-11.84 32.53 121 121 0 00-2.23 33.74l.14 2.09.24 2.07c.16 1.37.31 2.75.5 4.12.47 2.72.84 5.45 1.48 8.11a120.31 120.31 0 004.47 15.62c1 2.5 1.86 5 3 7.42.54 1.2 1 2.43 1.62 3.61s1.19 2.34 1.77 3.51c.3.59.58 1.17.89 1.75l1 1.69 1.92 3.38 2.07 3.27c.69 1.08 1.36 2.17 2.12 3.19a120.65 120.65 0 0019.74 22.18 123.41 123.41 0 0022.83 15.77 122 122 0 0046.29 13.74 116.61 116.61 0 0020.27.1c1.56-.07 3.08-.29 4.58-.46s3-.32 4.37-.59l4.15-.69 3.91-.85a115.81 115.81 0 0022.86-7.64c2.56-1.08 4.42-2.13 5.72-2.75l1.94-1 .6 1.12-2 1c-1.31.63-3.19 1.69-5.78 2.78A117 117 0 01683 425l-4 .86-4.2.7c-1.43.27-2.91.42-4.41.6s-3 .38-4.63.46a118 118 0 01-20.48-.1 123.33 123.33 0 01-46.77-13.89 124.73 124.73 0 01-23.08-15.93 122.48 122.48 0 01-20-22.41c-.76-1-1.44-2.14-2.14-3.24s-1.39-2.19-2.09-3.29-1.3-2.27-1.94-3.42l-1-1.71c-.31-.58-.6-1.17-.9-1.76l-1.78-3.55c-.58-1.2-1.1-2.43-1.65-3.65-1.12-2.43-2-5-3-7.49a121.32 121.32 0 01-4.51-15.79c-.65-2.69-1-5.45-1.5-8.2-.19-1.38-.34-2.78-.51-4.17l-.24-2.09-.14-2.1a122.41 122.41 0 012.25-34.1 122.89 122.89 0 0121.48-47.89 122.23 122.23 0 0125.29-25.29 133.41 133.41 0 0115.17-9.63 136.06 136.06 0 0116.42-7.3 125.51 125.51 0 0117.36-4.87 123.85 123.85 0 0117.76-2.22 125.36 125.36 0 0117.77.39 122.94 122.94 0 0134 8.25 122.06 122.06 0 0129.63 17l1.67 1.29 1.61 1.36c1.07.91 2.15 1.8 3.19 2.73 2 1.91 4.12 3.76 6 5.78a121.6 121.6 0 0110.64 12.51c1.57 2.21 3.18 4.37 4.57 6.66.71 1.13 1.46 2.24 2.13 3.38l2 3.46c.33.58.66 1.14 1 1.72l.89 1.76q.88 1.77 1.77 3.51l1.59 3.57c.52 1.18 1.06 2.36 1.5 3.57a122.17 122.17 0 017.61 29 122.43 122.43 0 01-13.86 74.68 118.06 118.06 0 01-11.26 17.1c-.94 1.28-2 2.44-2.95 3.6s-1.93 2.3-2.94 3.35l-2.91 3.1c-1 1-2 1.91-2.91 2.82a117.22 117.22 0 01-19.22 15c-2.35 1.55-4.26 2.54-5.51 3.27l-1.92 1.09z"/><path class="cls-14" d="M727.68 439.31l2.37-1.33c1.55-.91 3.9-2.14 6.82-4.05a146.18 146.18 0 0023.84-18.54l3.6-3.51 3.62-3.85c1.24-1.3 2.43-2.72 3.65-4.15s2.48-2.9 3.66-4.47a147.56 147.56 0 0014-21.21 151.31 151.31 0 007.73-128.59c-.55-1.5-1.21-3-1.86-4.43s-1.29-3-2-4.41l-2.17-4.34-1.11-2.17c-.38-.72-.79-1.43-1.19-2.14q-1.21-2.13-2.44-4.26c-.83-1.42-1.74-2.8-2.63-4.2-1.74-2.82-3.71-5.52-5.66-8.25a149.56 149.56 0 00-13.21-15.52c-2.35-2.51-4.92-4.82-7.45-7.19-1.29-1.15-2.63-2.26-4-3.39l-2-1.68-2.07-1.6a151.33 151.33 0 00-36.74-21.09 151.88 151.88 0 00-64.16-10.71 153.49 153.49 0 00-22 2.76 155.5 155.5 0 00-21.48 6 151.59 151.59 0 00-39.12 21 154.93 154.93 0 00-16.88 14.56A151.8 151.8 0 00522.48 234a151.79 151.79 0 00-14.82 40.73 151.23 151.23 0 00-2.79 42.27l.18 2.61.29 2.6c.21 1.73.4 3.45.64 5.17.56 3.42 1.07 6.84 1.85 10.18a149.44 149.44 0 005.61 19.59c1.19 3.14 2.34 6.28 3.72 9.29.68 1.51 1.33 3 2.05 4.51l2.2 4.4c.37.72.73 1.45 1.12 2.17l1.19 2.13c.81 1.4 1.61 2.81 2.41 4.21s1.72 2.73 2.58 4.09 1.72 2.71 2.66 4a151.57 151.57 0 0024.76 27.81 151.63 151.63 0 0086.58 37 147.85 147.85 0 0025.39.12c2-.11 3.88-.36 5.75-.57s3.71-.42 5.48-.74l5.21-.88 4.92-1.06A146.37 146.37 0 00718.1 444c3.21-1.37 5.54-2.65 7.15-3.44l2.43-1.24.6 1.13-2.45 1.24c-1.62.8-4 2.09-7.21 3.47a148.7 148.7 0 01-28.88 9.66l-5 1.06-5.25.88c-1.79.33-3.64.53-5.53.75s-3.82.47-5.8.58a147.43 147.43 0 01-25.61-.13 153.65 153.65 0 01-58.43-17.35 155.35 155.35 0 01-28.87-19.93 153.14 153.14 0 01-25-28.05c-1-1.3-1.8-2.67-2.68-4s-1.75-2.74-2.6-4.13-1.61-2.82-2.43-4.25l-1.2-2.14c-.39-.72-.76-1.46-1.13-2.19l-2.22-4.43c-.73-1.49-1.38-3-2.06-4.55-1.39-3-2.56-6.2-3.76-9.37a151.42 151.42 0 01-5.65-19.75c-.79-3.37-1.3-6.82-1.87-10.27-.24-1.73-.44-3.47-.64-5.21l-.29-2.62-.12-2.72a153 153 0 012.81-42.62 152.68 152.68 0 0158.5-91.51 153.5 153.5 0 0139.45-21.13 156.31 156.31 0 0121.66-6 152.07 152.07 0 0144.46-2.28 152.86 152.86 0 0142.52 10.3A152.84 152.84 0 01750 185l2.09 1.61 2 1.7c1.34 1.13 2.68 2.26 4 3.42 2.56 2.38 5.14 4.71 7.52 7.24a153 153 0 0113.31 15.65c2 2.75 4 5.47 5.72 8.32.88 1.41 1.8 2.8 2.65 4.23s1.63 2.88 2.45 4.3c.4.72.82 1.43 1.2 2.16l1.12 2.19 2.19 4.38c.69 1.47 1.33 3 2 4.44s1.32 3 1.88 4.47a152.36 152.36 0 019.51 36.33 152.82 152.82 0 01-17.31 93.33 148.52 148.52 0 01-14.08 21.4c-1.19 1.58-2.47 3.05-3.69 4.5s-2.43 2.88-3.69 4.19-2.46 2.62-3.65 3.88l-3.62 3.54a148.2 148.2 0 01-24 18.7c-2.95 1.92-5.32 3.17-6.88 4.08l-2.39 1.35z"/><path class="cls-14" d="M596.2 361l-1.2-1.38c-.73-.82-1.71-1.91-2.59-3.08l-1.33-1.68c-.42-.55-.77-1.08-1.09-1.53l-1.07-1.49L560.85 371l-.42-.6-.88-1.36-1.26-2 45.15-28.3 1.17 1.86c.79 1 1.74 2.52 2.87 3.86l.8 1 .84.94c.55.6 1 1.21 1.48 1.67l1.51 1.56-37.66 37.68-3.27-3.31zM610.11 239.28a16.38 16.38 0 011.51-1c.94-.56 2.12-1.41 3.4-2.11s2.52-1.49 3.51-2l1.63-.82L605 202.92s1-.53 2.08-1l2.13-1L631 249.54l-.54.24a12.08 12.08 0 00-1.43.68l-2 1c-.71.42-1.47.86-2.23 1.28s-1.47.94-2.17 1.35l-1 .62-.85.62-1.78 1.25L587 214l3.8-2.71zM728.41 269.41l.83 1.63c.44 1 1 2.33 1.63 3.67l1.44 3.73c.21.51.32.95.42 1.25l.16.48 32.27-10.77.72 2.22c.38 1.1.68 2.24.68 2.24l-51.19 14.78s0-.2-.15-.57l-.5-1.49c-.35-1.25-1-2.85-1.63-4.48-.37-.79-.72-1.59-1-2.34s-.72-1.42-1-2c-.56-1.19-1-1.94-1-1.94L756.64 250l.36.64c.23.38.51.89.76 1.41.53 1 1 2.09 1 2.09z"/><path class="cls-14" d="M562.9 373.89l21.51-15.71.65.91 1.53 1.93c1.08 1.43 2.28 2.76 2.28 2.76l-20.17 17.4s-1.56-1.73-3-3.59l-2-2.51zM601.87 204.5l12.58 23.5-3.1 1.77c-.79.42-1.53.92-2.09 1.27l-.94.6-14.41-22.4 1.22-.78c.73-.47 1.7-1.1 2.71-1.66zM764 266.07l-25 9.2s-.64-1.66-1.29-3.32-1.44-3.26-1.44-3.26l24.18-11.19s.94 2.12 1.87 4.25zM591.76 405.21l9.59-14.88 1.36.84c.86.54 2.07 1.33 3.6 2.15l2.45 1.37c.88.46 1.83.91 2.8 1.4 1.93 1 4.09 1.87 6.2 2.82 2.17.8 4.31 1.72 6.39 2.34 1 .34 2 .68 3 1l2.7.75c1.67.49 3.09.78 4.08 1l1.55.36 1.24-5.91.72.17 2.07.36c.9.14 2 .39 3.22.53s2.66.36 4.2.51a94 94 0 0044.54-6.41c2.86-1.21 5.23-2.24 6.83-3.1l2.55-1.28 2.84 5.32 8.36 15.6-4.84 2.44c-1.54.76-3.48 1.56-5.67 2.54-1.11.48-2.31.91-3.57 1.4s-2.58 1-4 1.44a114.61 114.61 0 01-19.63 4.82 118.65 118.65 0 01-46-1.91 120.53 120.53 0 01-31.92-12.8c-1.49-.86-2.62-1.62-3.42-2.09zm103.8-.5a3 3 0 105.51-2.38 3 3 0 00-3.94-1.55 3.08 3.08 0 00-1.57 3.93zm-10 3.44a2.91 2.91 0 003.78 2 3 3 0 001.94-3.8 3.07 3.07 0 00-3.77-1.95 3.11 3.11 0 00-2 3.76zm-10.32 2.43a3 3 0 001.27 1.95 3 3 0 004.6-3.19 3.07 3.07 0 00-3.56-2.31 3.12 3.12 0 00-2.31 3.55zM664.71 412a3 3 0 106-.64 3 3 0 00-6 .64zm-10.59.32a3 3 0 106 0 3 3 0 00-6 0zm-10.57-.73a3 3 0 002.71 3.32 3 3 0 003.26-2.77 3 3 0 00-6-.55zM563.77 231.31l13.78 11.09-1 1.27c-.6.82-1.54 1.92-2.52 3.36s-2.19 3.06-3.3 4.93c-.56.93-1.19 1.86-1.75 2.86l-1.68 3a98.64 98.64 0 00-5.3 11.57c-.31.82-.6 1.56-.85 2.22s-.42 1.25-.58 1.73l-.5 1.52 5.74 1.84-.23.71c-.16.45-.37 1.13-.6 2s-.53 1.93-.87 3.14-.59 2.62-.93 4.13a94.05 94.05 0 001.72 45c.38 1.5.9 2.83 1.26 4s.76 2.23 1.09 3.07l1 2.66-5.59 2.28-16.38 6.71s-.7-1.84-1.94-5.07c-.56-1.63-1.19-3.63-1.94-5.92-.32-1.16-.65-2.39-1-3.7-.17-.65-.35-1.32-.54-2s-.31-1.4-.46-2.12c-.3-1.45-.69-2.95-.94-4.53s-.53-3.2-.81-4.87-.4-3.42-.61-5.19-.26-3.59-.39-5.44a119 119 0 016.74-45.56 118 118 0 018.37-18.38c1.39-2.61 2.9-4.86 4.16-6.91s2.55-3.72 3.54-5.13zm-10.33 103.3a3 3 0 101.79 5.73 3 3 0 00-1.79-5.73zm-2.38-10.33a3 3 0 101.21 5.88 3 3 0 002.32-3.54 3.09 3.09 0 00-3.53-2.34zm-1.32-10.51a3 3 0 00-2.74 3.3 3 3 0 003.35 2.67 3 3 0 00-.61-6zm-.27-10.6a3 3 0 100 6 3 3 0 000-6zm.79-10.57a3 3 0 102.65 3.27 3 3 0 00-2.65-3.27zm1.82-10.44a3 3 0 102.32 3.52 3 3 0 00-2.32-3.52zM745.43 227.85l-13.36 11.61-1.05-1.2c-.64-.79-1.67-1.81-2.87-3.06a99.29 99.29 0 00-9.45-8.53l-2.74-2.1c-.9-.7-1.85-1.3-2.74-1.93-1.76-1.27-3.51-2.29-5-3.22s-2.77-1.58-3.64-2.09l-1.39-.78-2.82 5.34-2.54-1.27c-.81-.4-1.79-.9-3-1.38l-1.83-.81-1-.44-1.06-.4a96.63 96.63 0 00-22-5.79l-3.07-.39c-1-.11-2.05-.16-3.06-.25-2-.21-4-.18-6-.27s-3.82 0-5.59.11-3.45.18-5 .38-2.95.32-4.2.52l-3.21.54c-.9.13-1.58.31-2.06.41l-.72.16-1.27-5.9-3.72-17.31 1.39-.3c.9-.22 2.24-.43 3.94-.71l2.83-.47 3.35-.4c2.38-.33 5.09-.46 8-.66a122.64 122.64 0 0120.19.86 119.12 119.12 0 0143.68 14.54 121.39 121.39 0 0116.67 11.43l3.24 2.75c1 .88 1.93 1.78 2.81 2.6 1.79 1.61 3.22 3.15 4.42 4.39.6.62 1.14 1.17 1.6 1.67l1.12 1.28zm-99.89-28.31a3 3 0 10-6 .77 3 3 0 006-.77zm10.59-.52a3 3 0 00-3.09-3 2.94 2.94 0 00-2.91 3.13 3 3 0 006-.17zm10.58.53a3 3 0 00-2.77-3.24 2.95 2.95 0 00-3.22 2.82 3.06 3.06 0 00.77 2.16 3 3 0 002 1 3.07 3.07 0 003.22-2.74zm10.48 1.59a3 3 0 10-5.91-1 3 3 0 105.91 1zm10.27 2.63a3 3 0 10-5.78-1.61 3 3 0 005.78 1.61zm10 3.62a3 3 0 000-2.33 3.08 3.08 0 00-1.7-1.6 3 3 0 00-3.9 1.75 3.06 3.06 0 001.72 3.88 3 3 0 002.26-.08 3 3 0 001.58-1.62z"/><path class="cls-14" d="M793.55 341a5.71 5.71 0 00-3.74-6.92l.51-2.32.51-3c.34-2 .71-4 .91-6 .54-4 .82-8.1 1-12.17a133.24 133.24 0 00-1.34-24.36A137.7 137.7 0 00776 240a136.37 136.37 0 00-72.34-62.54c-1.31-.54-2.66-.95-4-1.4l-4-1.33-.31 1 4 1.32c1.33.45 2.68.85 4 1.39a135.43 135.43 0 0171.76 62 136.85 136.85 0 0115.28 45.72 131.94 131.94 0 011.32 24.16c-.19 4-.46 8.07-1 12.07-.19 2-.57 4-.9 6l-.51 3-.51 2.3a6 6 0 00-4 1 5.73 5.73 0 001.72 10.29 5.68 5.68 0 007.04-3.98zM627.43 276.74a1.34 1.34 0 00-.53 1.76l-.47.3-.58.41c-.38.27-.78.54-1.14.85-.76.57-1.48 1.2-2.18 1.84a31.19 31.19 0 00-3.8 4.24 32.05 32.05 0 00-6.28 21.44 31.53 31.53 0 002.83 11c.12.31.28.6.43.9l.44.88.23-.12-.44-.88c-.15-.29-.3-.58-.43-.88a31.74 31.74 0 013.42-32.17 30.23 30.23 0 013.78-4.21c.69-.64 1.4-1.26 2.15-1.83.37-.3.76-.57 1.14-.84l.58-.41.46-.3a1.49 1.49 0 00.83.51 1.4 1.4 0 00.93-.16 1.37 1.37 0 00.48-1.83 1.32 1.32 0 00-1.85-.5zM706.77 339.33l2.848-5.017 44.797 25.427-2.848 5.018zM651.47 286.44l-.77.18c-.43.12-.88.32-1.4.47l-.38.12-.56.26-1 .47-1 .45-13.55-28.68 1-.46 1-.46.56-.26 1.35-.56c.93-.37 1.87-.72 2.77-1l1.28-.44c.42-.14.81-.27 1.08-.33l2-.51zM658.24 285.91h-.79a11.1 11.1 0 00-1.75 0 12.11 12.11 0 00-1.7.09l-.79.11-4.95-31.34 2-.28a44.07 44.07 0 014.46-.33 37.68 37.68 0 014.46.06l2 .13zM664.81 287.68l-.72-.34-1.65-.58c-.6-.19-1.23-.31-1.69-.44a3.64 3.64 0 00-.77-.16l5.65-31.22s.81.11 2 .4 2.76.66 4.3 1.14 3.06 1.06 4.19 1.5l1.85.82zM670.45 291.47l-.6-.52-.6-.54c-.23-.19-.5-.36-.75-.55a10.55 10.55 0 00-1.44-1l-.68-.41L682 260.83l1.74 1a40 40 0 013.7 2.51c.65.48 1.31 1 1.9 1.44l1.57 1.37 1.51 1.37zM674.4 296.74l-.12-.26-.07-.14v-.06c-.14-.28.19.38.16.31v-.06l-.18-.27-.9-1.5-1.05-1.4a4 4 0 00-.37-.44l-.15-.15 23.83-20.94.38.41c.23.27.58.64.94 1.13.75 1 1.73 2.26 2.68 3.58s1.7 2.74 2.31 3.78l.41.71.09.16.61 1.21.07.14.12.26zM676.54 303.42s0-.31-.11-.79-.26-1.07-.39-1.69a11 11 0 00-.46-1.47c-.12-.38-.19-.63-.19-.63l28.74-13.42s.4.92.93 2.33c.27.71.57 1.54.88 2.43.14.43.32.95.43 1.34s.2.78.31 1.18c.38 1.58.8 3.15 1 4.36l.3 2zM676.36 310.21s0-.31.11-.78a13 13 0 00.21-1.73 16.83 16.83 0 000-2.54l31.69-1.6s0 .81.07 2-.06 2.83-.14 4.45a43.71 43.71 0 01-.53 4.42c-.2 1.2-.33 2-.33 2zM673.9 316.56l.41-.68c.23-.41.47-1 .75-1.57s.43-1.2.62-1.64c.08-.22.15-.41.19-.54l.06-.21 30.45 8.89s0 .19-.15.53-.27.82-.47 1.39c-.41 1.14-.9 2.69-1.58 4.16s-1.35 2.95-1.93 4l-1 1.76zM669.54 321.77l.58-.54a10.94 10.94 0 001.23-1.23 12.19 12.19 0 001.13-1.33l.52-.67 25.84 18.4-1.2 1.64c-.7 1-1.81 2.19-2.89 3.41a40.75 40.75 0 01-3.17 3.16L690 346zM663.42 325.33l.17-.05.21-.07.39-.19 2.11-1-.31.15h.05l.1-.06.21-.12.39-.24.7-.42a4.15 4.15 0 00.65-.45l18.31 25.91-.45.32a12.18 12.18 0 01-1.22.81L683 351l-1 .6-.52.3-.26.15-.14.07h-.06l-1.16.58-2.11 1-.39.19-.7.29-.64.26zM657 326.57h.79a14.15 14.15 0 001.73-.21 10.76 10.76 0 001.7-.35l.77-.18 8.83 30.47-2 .51a40.44 40.44 0 01-4.38.89c-1.61.22-3.22.48-4.44.51l-2 .1zM650.28 325.66l.2.08.56.13c.47.09 1.07.32 1.71.39s1.25.21 1.72.25h.8l-1.75 31.67-2-.13c-1.21-.1-2.81-.36-4.41-.61s-3.16-.7-4.34-1l-1.41-.38-.53-.17zM644.22 322.56a16.42 16.42 0 002.12 1.39 11.89 11.89 0 001.56.78l.72.35-12 29.35-1.84-.83a41.35 41.35 0 01-4-2c-1.4-.83-2.82-1.62-3.8-2.35l-1.65-1.19zM639.5 317.68l.49.64a12.23 12.23 0 001.08 1.35c.45.46.83 1 1.2 1.27l.59.52-21 23.76-1.51-1.37c-.91-.82-2-2-3.09-3.23a44 44 0 01-2.8-3.49l-1.19-1.64zM664.88 322c.18-.08-.44.23.38-.19l-.34.17zM672 297.32V297.47l.08.17v.06c.3.39-.14-.49-.08-.38zM640.53 314.7l.19.38-.14-.31z"/><path class="cls-14" d="M647.8 290.42l-.34.17-.69.41a6.1 6.1 0 00-.59.37l-.66.5c-.23.19-.51.36-.77.58l-.8.74a17.44 17.44 0 00-3.37 4.38 18.69 18.69 0 00-2.12 6.87 18.88 18.88 0 00.1 4.1c0 .35.1.71.14 1.07l.27 1.05.13.54c0 .18.1.27.14.41a7.41 7.41 0 01.25.8 3.72 3.72 0 00.28.65l.37.79.37.79.05.09.08.12a18.14 18.14 0 001.29 2 17 17 0 003.37 3.47 19.39 19.39 0 004.34 2.5 20.28 20.28 0 005 1.22 19.74 19.74 0 005.2-.27c.43-.11.85-.22 1.28-.31l.32-.08.23-.09.46-.16.47-.13a.46.46 0 00.13 0l.23-.11.45-.21 1.47-.69h.07l.14-.09.28-.18.57-.34a7.52 7.52 0 001.09-.75 18.13 18.13 0 002-1.7 19.75 19.75 0 003.11-4.18 20.45 20.45 0 001.76-4.85 19.22 19.22 0 00.32-5 9.68 9.68 0 00-.14-1.22 7.92 7.92 0 00-.21-1.2c-.09-.4-.19-.79-.28-1.18s-.22-.58-.3-.88a17.38 17.38 0 00-1.17-2.72l-.11-.18-.31-.5c-.21-.32-.37-.68-.6-1a18.69 18.69 0 00-6.3-5.63 18.27 18.27 0 00-6.89-2 17.11 17.11 0 00-5.51.38l-1.06.25c-.3.08-.48.18-.7.24l-.59.18a1.92 1.92 0 00-.42.17l-.46.22-1.31.62zm2.57.68a2.53 2.53 0 01.41-.18l.48-.12c.19-.05.31-.13.57-.2s.63-.14 1-.23a15.75 15.75 0 015-.34 16.57 16.57 0 016.24 1.84 16.76 16.76 0 015.69 5.09 8.69 8.69 0 01.55.88l.28.45.09.15a15.29 15.29 0 011.11 2.58l.12.33a1.76 1.76 0 01.13.39c.07.36.16.71.25 1.07a5.55 5.55 0 01.19 1.08 8.25 8.25 0 01.13 1.1 17.33 17.33 0 01-.29 4.53 16.21 16.21 0 01-4.4 8.18 17.75 17.75 0 01-1.82 1.53 6.11 6.11 0 01-1 .68l-.52.31-.25.16-.13.08-1.41.66-.45.21-.23.11a.3.3 0 01-.11 0l-.39.1a2.72 2.72 0 00-.37.13l-.18.07-.29.06-1.15.29a16.27 16.27 0 01-9.24-.86 17.43 17.43 0 01-3.94-2.27 15.52 15.52 0 01-3-3.13 15.81 15.81 0 01-1.17-1.8l-.07-.11-.37-.79-.37-.79a2.93 2.93 0 01-.27-.62 4.43 4.43 0 00-.18-.65 3.08 3.08 0 01-.13-.34l-.11-.49c-.07-.32-.15-.64-.24-.95s-.09-.65-.13-1a17.25 17.25 0 01-.09-3.72 16.62 16.62 0 011.92-6.21 15.21 15.21 0 013-4c.26-.23.5-.46.72-.68s.48-.35.7-.52l.59-.46a5.42 5.42 0 01.54-.32l.9-.56 1.32-.62z"/><path class="cls-14" d="M633.79 257.15l.45-.22c.19-.09.19-.1.75-.33.87-.36 1.85-.75 2.91-1.14l1.65-.59.87-.29c.31-.1.61-.2.84-.25 1-.27 2.07-.54 3.2-.81a53.3 53.3 0 0116.67-1.13 54 54 0 0139.68 23.1c.67.92 1.23 1.91 1.84 2.89l.87 1.49.44.75.65 1.29v.1l.1.2c.25.53.5 1.07.76 1.61.11.18.86 2 1.35 3.29.27.7.52 1.41.77 2.12s.52 1.5.64 2c.31 1.17.61 2.35.88 3.55a36.41 36.41 0 01.64 3.64c.16 1.22.38 2.45.42 3.69a55.15 55.15 0 01-1 15.07 53.88 53.88 0 01-14.66 27.14 54.12 54.12 0 01-6 5.18 36.45 36.45 0 01-3.27 2.25l-1.69 1-.85.5-.43.25-.21.12-.11.06-1.32.67-1.81.86-.45.21-.23.11-.53.22c-.76.32-1.53.63-2.31.92l-2.34.84-1.18.39-1 .26q-1.92.5-3.87.93a54 54 0 01-30.72-2.83 55.08 55.08 0 01-13.09-7.52 55.15 55.15 0 01-14-16.42l-.22-.38-.1-.19-.06-.09-.64-1.28-.19-.39-.37-.8-.37-.78-.19-.39-.05-.1-.09-.22-.2-.49c-.54-1.32-1-2.64-1.51-4l-.34-1c-.1-.32-.23-.7-.29-.94l-.42-1.62c-.27-1.08-.53-2.15-.76-3.22s-.35-2.15-.5-3.22a53.63 53.63 0 016.09-33 53.48 53.48 0 0110.17-13.25c.85-.8 1.67-1.54 2.45-2.22s1.57-1.25 2.29-1.79l2-1.49c.62-.44 1.21-.78 1.74-1.11 2.1-1.3 3.26-1.93 3.26-1.93l-.81-1.51s-1.19.66-3.36 2c-.54.35-1.16.7-1.8 1.16l-2.08 1.52c-.74.57-1.54 1.16-2.36 1.85s-1.64 1.47-2.52 2.29a55 55 0 00-10.5 13.68 55.29 55.29 0 00-6.28 34c.15 1.1.31 2.21.51 3.32s.51 2.21.79 3.32c.14.56.29 1.11.43 1.67.06.25.2.65.31 1l.35 1c.48 1.38 1 2.76 1.56 4.12l.22.51.09.23.05.1.18.39.38.78.37.79.19.4.68 1.35v.1l.12.19.22.39a54.1 54.1 0 004 6.13 54.74 54.74 0 0010.54 10.82 57.06 57.06 0 0013.5 7.76 55.73 55.73 0 0031.69 2.91c1.33-.29 2.67-.61 4-1l1-.27 1.22-.4q1.23-.42 2.43-.87c.81-.31 1.61-.63 2.4-.95l.55-.24.22-.1.46-.22 1.81-.85c2.61-1.32.79-.4 1.4-.72l.11-.06.22-.12.44-.26.88-.52 1.75-1.05a39.57 39.57 0 003.37-2.32 55.06 55.06 0 0015.91-18.39 58.12 58.12 0 005.44-14.95 57 57 0 001-15.54c-.05-1.29-.27-2.55-.43-3.82s-.35-2.52-.66-3.75-.59-2.46-.91-3.67c-.13-.53-.42-1.39-.66-2.1s-.52-1.47-.8-2.2-.56-1.44-.85-2.16c-.38-.9-.4-.89-.55-1.23-.26-.54-.51-1.07-.76-1.61l-.09-.2-.05-.1v-.05c.13.28-1.27-2.49-.7-1.37l-.42-.6-.9-1.54c-.63-1-1.21-2-1.9-3a55.59 55.59 0 00-40.93-23.82 54.69 54.69 0 00-17.19 1.16c-1.17.27-2.28.55-3.31.83l-.4.11-.46.15-.91.31-1.72.61c-1.1.4-2.1.8-3 1.18-.58.24-.56.25-.76.34l-.45.21-1.74.82.73 1.55z"/><path class="cls-14" d="M662.57 317.78c1.28-.64.35-.18.63-.32H663.05l-.19.09-.18.09-.09.06zM667.93 300c.29.56-.39-.78-.32-.64v.05l.05.1.18.39v.08z"/><path class="cls-14" d="M653.16 295.83l.22.6a10.15 10.15 0 00-1.85.76 9.55 9.55 0 00-3.63 3.41l-.66-.32c-1.22-.56-2.07-.89-2.07-.89l-.22.37a6.64 6.64 0 00-.51 1 12.49 12.49 0 00-.6 1.51c-.11.27-.13.58-.22.88l-.13.45c0 .15 0 .31-.06.47a13.59 13.59 0 00-.14 3.42c.09.46.13.85.16 1.12a2.13 2.13 0 00.11.41s.92 0 2.27-.18l1.12-.15a9.9 9.9 0 00.64 1.51 10.05 10.05 0 001 1.46l-1 .91c-1 .94-1.6 1.62-1.6 1.62l.25.35c.17.22.46.48.76.84a3.39 3.39 0 00.55.51l.62.57a14.47 14.47 0 001.53 1 14.13 14.13 0 001.63.85l.81.28a3.15 3.15 0 00.72.23c.47.09.84.25 1.11.27l.43.06s.3-.87.65-2.18c.14-.5.29-1.11.43-1.74a9.12 9.12 0 003-.28c.23.64.45 1.23.67 1.75.52 1.27.94 2.1.94 2.1s.1 0 .21-.09l.21-.05h.26l.32-.15 1.42-.67.21-.1.28-.18c.25-.16.52-.31.79-.46s.49-.39.74-.58a4.51 4.51 0 00.71-.6c.21-.22.47-.38.65-.61a12.71 12.71 0 001-1.23 6.57 6.57 0 00.64-.93l.22-.37s-.7-.59-1.79-1.38c-.42-.32-.94-.67-1.48-1a9.57 9.57 0 001.06-2.92h1.65c.7 0 1.27 0 1.65-.07h.62v-.44a5.13 5.13 0 000-1.13v-.75c0-.27-.1-.54-.14-.83s0-.29 0-.44l-.13-.44c-.08-.27-.14-.66-.2-.85a1 1 0 01-.12-.41v-.22l-.11-.21-.39-.84-.39-.81c-.16-.23-.29-.45-.41-.65a6.18 6.18 0 00-.64-.94l-.26-.35-.53.31c-.34.19-.83.49-1.41.87-.31.19-.63.4-1 .63a9.72 9.72 0 00-2.55-2.29c.12-.31.24-.61.34-.89.45-1.27.7-2.15.7-2.15l-.4-.18a3.81 3.81 0 00-.45-.22l-.61-.2a12.32 12.32 0 00-3.37-.71 14.67 14.67 0 00-3.42.17 9.8 9.8 0 01-1.09.28h-.28s.13.84.56 2.11z"/></g><g class="cls-30"><path class="cls-14" d="M701 463.09l1.44-.4 3.75-1.21c1.54-.53 3.37-1 5.26-1.79l6-2.28c2-.82 4-1.73 5.84-2.54s3.56-1.64 5-2.38l4.83-2.44 14.63 27.29-5.73 2.9c-1.72.88-3.73 1.87-6 2.83s-4.56 2-6.94 3L722 488.8c-2.25.87-4.43 1.51-6.26 2.13l-4.46 1.44-1.71.47zM654.81 469.5l5.42-.09 2.63-.06 2.93-.19c2-.16 4.21-.23 6.36-.5l6.34-.74L684 467c1.61-.26 2.95-.49 3.88-.71l1.46-.31 6.37 30.3-1.74.37c-1.11.26-2.7.53-4.61.85s-4.15.71-6.54 1.07l-7.55.89c-2.56.31-5.15.41-7.56.6l-3.49.22-3.13.07-6.45.11zM608.75 462.61l5.22 1.45c1.56.46 3.42.86 5.4 1.31s4.09 1 6.23 1.3a155.35 155.35 0 0017.2 2.33l-2.46 30.87a186.85 186.85 0 01-20.43-2.71c-2.55-.42-5-1-7.41-1.55s-4.56-1-6.41-1.56l-6.21-1.72zM566.47 443.09l4.6 2.87c1.37.89 3.06 1.76 4.82 2.77s3.67 2 5.63 3 3.87 2 5.73 2.78l5.09 2.23c1.48.68 2.77 1.1 3.65 1.46l1.4.53-11 28.95-1.65-.63c-1.05-.43-2.57-1-4.34-1.74l-6-2.65c-2.21-1-4.49-2.17-6.81-3.3s-4.58-2.38-6.69-3.56-4.1-2.25-5.73-3.3l-5.47-3.41zM531.36 412.4l3.59 4.08 3.86 4c.71.72 1.43 1.5 2.2 2.24l2.36 2.22c3.12 3 6.49 5.77 9 7.88s4.3 3.33 4.3 3.33l-18.7 24.68s-2.07-1.55-5.11-4-7-5.78-10.68-9.38l-2.81-2.65c-.91-.88-1.77-1.79-2.62-2.66l-4.59-4.78-4.27-4.86z"/><g class="cls-25"><path class="cls-14" d="M506.37 373.14l.61 1.36c.36.88 1 2.08 1.71 3.53s1.59 3.14 2.5 5 2.07 3.64 3.14 5.53 2.26 3.7 3.34 5.42 2.08 3.33 3.05 4.64l3.15 4.42L499 421.38l-3.74-5.25c-1.15-1.57-2.32-3.48-3.63-5.51s-2.72-4.19-4-6.44l-3.72-6.57c-1.09-2.15-2.1-4.15-3-5.87s-1.59-3.15-2-4.19l-.72-1.62z"/></g><g class="cls-26"><path class="cls-14" d="M493.32 328.4s.08.53.23 1.47.38 2.28.65 3.89c.14.8.28 1.67.44 2.59s.4 1.88.61 2.87c.45 2 .86 4.13 1.42 6.23l1.67 6.15c.56 2 1.19 3.75 1.68 5.31 1 3.11 1.79 5.12 1.79 5.12l-29.06 10.7s-.95-2.4-2.12-6.09c-.59-1.85-1.33-4-2-6.31s-1.32-4.84-2-7.33-1.16-5-1.69-7.41c-.25-1.18-.5-2.33-.72-3.42s-.37-2.13-.53-3.08c-.32-1.92-.59-3.51-.77-4.63s-.27-1.75-.27-1.75z"/></g><g class="cls-27"><path class="cls-14" d="M493.49 281.79s-.27 2.15-.68 5.38c-.24 1.61-.36 3.51-.53 5.54s-.36 4.19-.39 6.36a155.77 155.77 0 00.23 17.36l-30.9 2a185.16 185.16 0 01-.26-20.64c0-2.59.27-5.15.46-7.57s.35-4.66.62-6.58c.49-3.83.82-6.39.82-6.39z"/></g><g class="cls-28"><path class="cls-14" d="M506.73 237.16s-.88 2-2.18 5c-.68 1.47-1.3 3.27-2.05 5.16s-1.5 3.92-2.15 6-1.4 4.1-1.92 6.07l-1.43 5.32c-.45 1.57-.69 2.9-.92 3.82l-.38 1.47-30.22-6.74s.14-.63.39-1.72.57-2.68 1.09-4.54 1.11-4 1.76-6.37 1.5-4.76 2.28-7.21 1.69-4.87 2.56-7.12 1.63-4.38 2.43-6.14l2.59-5.9z"/></g><g class="cls-29"><path class="cls-14" d="M532 198l-3.51 4.14c-1 1.26-2.17 2.79-3.41 4.4l-1.9 2.5-1.85 2.66c-2.54 3.52-4.77 7.25-6.5 10s-2.67 4.73-2.67 4.73L485 211.51s1.23-2.27 3.18-5.61 4.71-7.72 7.72-11.92l2.21-3.16 2.25-3c1.48-1.92 2.84-3.73 4.07-5.23l4.17-4.93z"/></g><g class="cls-24"><path class="cls-14" d="M567.28 167.57l-1.25.8c-.8.52-2 1.21-3.28 2.18l-4.53 3.22c-1.67 1.16-3.33 2.57-5.05 3.9l-2.53 2-2.37 2.06c-1.52 1.35-3 2.57-4.16 3.69l-3.91 3.78-21.8-22 4.65-4.49c1.41-1.33 3.13-2.8 5-4.4l2.82-2.45 3-2.4c2-1.59 4-3.25 6-4.64l5.39-3.83c1.56-1.14 2.94-2 3.88-2.59l1.49-1z"/></g><g class="cls-30"><path class="cls-14" d="M609.62 148.24s-.53.12-1.43.42l-3.75 1.22c-3.12.94-7.15 2.55-11.2 4.12-4 1.74-8 3.45-10.82 5l-3.51 1.77c-.85.42-1.31.7-1.31.7l-14.75-27.23s.55-.33 1.56-.83l4.15-2.11c3.41-1.79 8.14-3.85 12.86-5.9 4.8-1.88 9.61-3.77 13.32-4.9l4.46-1.5c1.06-.35 1.7-.51 1.7-.51z"/></g><g class="cls-31"><path class="cls-14" d="M655.78 141.64l-5.43.09c-1.62 0-3.52.15-5.55.29s-4.21.24-6.36.53a154.08 154.08 0 00-17.15 2.75l-6.51-30.3a185.17 185.17 0 0120.41-3.27c2.57-.33 5.15-.47 7.57-.64s4.67-.33 6.61-.34l6.45-.11z"/></g><g class="cls-32"><path class="cls-14" d="M701.87 148.31l-5.23-1.44c-1.56-.46-3.43-.81-5.4-1.28l-3.06-.68c-1-.22-2.12-.39-3.19-.58-2.14-.36-4.26-.81-6.28-1l-5.52-.7c-1.61-.21-3-.26-3.92-.35l-1.48-.12 2.31-30.88 1.77.14c1.13.11 2.74.18 4.66.42l6.55.83c2.4.29 4.93.81 7.47 1.23 1.27.23 2.54.44 3.78.7l3.64.81c2.35.55 4.56 1 6.42 1.52l6.21 1.72z"/></g><path class="cls-14" d="M730.43 445.1l2.48-1.41c1.62-.95 4.1-2.22 7.14-4.23a151.69 151.69 0 0024.88-19.35l3.76-3.66 3.77-4c1.31-1.35 2.53-2.84 3.8-4.34s2.61-3 3.83-4.65a153.76 153.76 0 0014.56-22.14 159.33 159.33 0 0018.57-60.37 161.12 161.12 0 00-.62-36.3 157.87 157.87 0 00-9.85-37.56c-.57-1.57-1.27-3.09-1.94-4.63l-2.06-4.62-2.28-4.54-1.16-2.3c-.4-.75-.83-1.49-1.25-2.23l-2.54-4.47c-.88-1.49-1.84-2.93-2.76-4.39-1.81-3-3.89-5.76-5.92-8.62a155.26 155.26 0 00-13.77-16.18c-2.44-2.63-5.13-5-7.76-7.5-1.36-1.2-2.75-2.35-4.13-3.53l-2.08-1.76-2.17-1.66a158.29 158.29 0 00-38.36-22 158.58 158.58 0 00-67-11.19 159.31 159.31 0 00-23 2.88 162.79 162.79 0 00-22.4 6.24 158.31 158.31 0 00-40.9 21.91 163.47 163.47 0 00-17.61 15.19 158 158 0 00-27.44 37 158.75 158.75 0 00-15.49 42.55 158.64 158.64 0 00-2.92 44.14l.19 2.72.31 2.71c.22 1.8.41 3.6.65 5.39.62 3.57 1.11 7.13 1.94 10.62a157.17 157.17 0 005.85 20.43c1.26 3.27 2.43 6.56 3.9 9.7.71 1.58 1.37 3.18 2.12 4.72l2.32 4.6c.38.76.76 1.53 1.16 2.28l1.26 2.22 2.52 4.42 2.7 4.27c.91 1.41 1.78 2.84 2.78 4.18a157.38 157.38 0 0025.82 29 161.07 161.07 0 0029.87 20.62 159.32 159.32 0 0060.55 18 152.76 152.76 0 0026.5.14c2-.1 4-.39 6-.6s3.86-.43 5.71-.78l5.43-.91 5.13-1.1a152 152 0 0029.89-10c3.35-1.42 5.79-2.78 7.48-3.6l2.54-1.28.79 1.46-2.57 1.3c-1.71.83-4.17 2.21-7.56 3.64a153.28 153.28 0 01-30.21 10.1l-5.17 1.12-5.49.92c-1.87.34-3.81.55-5.78.78s-4 .5-6.06.61a155 155 0 01-26.78-.14 159.53 159.53 0 01-117.46-68.32c-1-1.36-1.89-2.8-2.81-4.23s-1.82-2.87-2.73-4.32-1.69-3-2.54-4.46l-1.28-2.24c-.4-.76-.78-1.54-1.17-2.31l-2.34-4.64c-.76-1.56-1.43-3.18-2.15-4.77-1.47-3.18-2.67-6.5-3.94-9.8a159.39 159.39 0 01-5.9-20.65c-.85-3.52-1.35-7.13-2-10.73-.26-1.81-.45-3.63-.66-5.45l-.32-2.74-.19-2.75a159.94 159.94 0 013-44.59 160 160 0 0115.65-43 159.57 159.57 0 0127.73-37.37 165.67 165.67 0 0117.79-15.36A160.62 160.62 0 01601.6 155a165.27 165.27 0 0122.64-6.31 159.82 159.82 0 0146.48-2.39 166.57 166.57 0 0122.74 3.83 164.68 164.68 0 0121.73 7A160 160 0 01754 179.35l2.19 1.69 2.1 1.77c1.4 1.19 2.81 2.36 4.18 3.57 2.65 2.51 5.38 4.92 7.84 7.58a157.36 157.36 0 0113.92 16.35c2.05 2.89 4.15 5.72 6 8.71.93 1.48 1.9 2.93 2.78 4.43l2.57 4.52c.43.76.87 1.5 1.27 2.26l1.17 2.3q1.15 2.29 2.3 4.59l2.08 4.66c.68 1.56 1.39 3.09 2 4.68a159.78 159.78 0 0110 38 162.74 162.74 0 01.63 36.68 161.06 161.06 0 01-18.76 61 153.8 153.8 0 01-14.73 22.38c-1.23 1.66-2.58 3.18-3.86 4.7s-2.52 3-3.85 4.38-2.57 2.74-3.8 4.06l-3.8 3.69a153.94 153.94 0 01-25.14 19.56c-3.07 2-5.58 3.31-7.22 4.28l-2.5 1.41z"/><path class="cls-14" d="M749.34 480.39l3.1-1.75c2-1.19 5.11-2.8 8.92-5.29a191.53 191.53 0 0031.19-24.26l4.71-4.59 4.73-5c1.63-1.7 3.18-3.55 4.78-5.43s3.25-3.78 4.79-5.84a193 193 0 0018.27-27.75 198 198 0 0010.11-168.2c-.73-2-1.59-3.87-2.44-5.79s-1.69-3.86-2.58-5.78-1.92-3.81-2.84-5.71l-1.45-2.85c-.5-.93-1-1.86-1.56-2.79q-1.59-2.78-3.18-5.58c-1.1-1.85-2.29-3.66-3.44-5.49-2.28-3.69-4.86-7.22-7.42-10.79a194 194 0 00-17.27-20.3c-3.07-3.28-6.43-6.31-9.74-9.4-1.7-1.51-3.44-3-5.18-4.44l-2.62-2.2-2.71-2.09a198.4 198.4 0 00-48-27.59 198.8 198.8 0 00-55.1-13.36 197.91 197.91 0 00-57.67 3 203.28 203.28 0 00-28.1 7.83 198.41 198.41 0 00-51.16 27.42A198.5 198.5 0 00461.54 265a198.53 198.53 0 00-3.65 55.29l.24 3.42.38 3.39c.27 2.27.51 4.52.83 6.77.74 4.47 1.4 8.94 2.43 13.32a193.83 193.83 0 007.33 25.62c1.56 4.11 3.07 8.22 4.87 12.15.89 2 1.73 4 2.67 5.91l2.89 5.74c.48.95 1 1.91 1.46 2.85l1.57 2.78 3.15 5.51c1.1 1.8 2.24 3.58 3.37 5.35s2.25 3.54 3.48 5.23A197.24 197.24 0 00525 454.74a198.24 198.24 0 00113.2 48.37 192.52 192.52 0 0033.22.17c2.56-.15 5.06-.48 7.51-.75s4.85-.56 7.18-1l6.81-1.15 6.43-1.38a191.78 191.78 0 0037.46-12.52c4.2-1.79 7.25-3.47 9.36-4.5l3.17-1.61.79 1.46-3.2 1.63c-2.13 1-5.21 2.73-9.43 4.54a193.57 193.57 0 01-37.79 12.63l-6.48 1.37-6.87 1.16c-2.34.42-4.76.69-7.23 1s-5 .61-7.58.76a194.75 194.75 0 01-33.5-.17 199.62 199.62 0 01-146.86-85.46c-1.25-1.71-2.36-3.5-3.51-5.28s-2.29-3.58-3.4-5.39l-3.18-5.56-1.58-2.8c-.51-.95-1-1.91-1.47-2.87l-2.91-5.79c-.95-1.95-1.8-4-2.69-6-1.82-4-3.34-8.11-4.92-12.25a197.16 197.16 0 01-7.39-25.84c-1-4.41-1.7-8.92-2.45-13.43-.31-2.27-.56-4.55-.83-6.82l-.38-3.43-.25-3.45a200 200 0 013.68-55.75A199.67 199.67 0 01536.43 145 200.13 200.13 0 01588 117.35a205.23 205.23 0 0128.33-7.9 199 199 0 0158.16-3 200 200 0 0155.56 13.48 199.67 199.67 0 0148.45 27.82l2.74 2.11 2.64 2.22c1.75 1.48 3.51 2.95 5.22 4.47 3.34 3.12 6.72 6.17 9.83 9.48a198.42 198.42 0 0117.41 20.47c2.58 3.6 5.18 7.16 7.48 10.88 1.16 1.84 2.37 3.67 3.47 5.53s2.14 3.76 3.21 5.63c.52.94 1.06 1.87 1.57 2.82l1.46 2.87q1.44 2.87 2.86 5.72c.9 1.93 1.75 3.88 2.61 5.82s1.72 3.87 2.45 5.85a199.28 199.28 0 0112.45 47.51 200.1 200.1 0 01-22.64 122.09 195.22 195.22 0 01-18.42 28c-1.55 2.07-3.23 4-4.83 5.89s-3.18 3.76-4.82 5.48l-4.78 5.08-4.74 4.62a192.9 192.9 0 01-31.45 24.46c-3.85 2.52-7 4.15-9 5.34l-3.12 1.76z"/><path class="cls-14" d="M577.35 377.88l-1.57-1.8c-.94-1.08-2.23-2.5-3.37-4-.6-.74-1.19-1.49-1.75-2.19s-1-1.42-1.43-2l-1.39-2L531.12 391l-.56-.78c-.31-.48-.72-1.13-1.14-1.77-.82-1.3-1.65-2.59-1.65-2.59l59.05-37 1.54 2.43c1 1.37 2.28 3.3 3.76 5.05l1 1.34 1.1 1.23c.72.79 1.32 1.59 1.93 2.19l2 2-49.27 49.3-4.24-4.4zM595.56 218.72a20.62 20.62 0 012-1.32c1.23-.74 2.77-1.85 4.45-2.77s3.29-1.94 4.58-2.56l2.11-1.07-19.82-39.84 2.72-1.37 2.78-1.24 28.52 63.59-.72.31a19.52 19.52 0 00-1.86.9l-2.63 1.31c-.93.55-1.92 1.12-2.92 1.67s-1.92 1.23-2.84 1.77l-1.31.81-1.11.81-2.31 1.63-41.87-55.71 5-3.55zM750.3 258.13l1.09 2.14c.58 1.31 1.35 3.05 2.13 4.79s1.37 3.56 1.89 4.89c.27.66.41 1.24.55 1.63s.2.63.2.63l42.21-14.09s.47 1.45 1 2.91.88 2.92.88 2.92l-67 19.35s-.08-.28-.2-.75-.39-1.14-.65-1.95c-.47-1.64-1.34-3.74-2.14-5.86-.48-1-.94-2.08-1.36-3.07s-.95-1.85-1.31-2.63c-.74-1.56-1.34-2.54-1.34-2.54l61-33.73.48.83c.28.49.65 1.16 1 1.84.68 1.37 1.37 2.73 1.37 2.73z"/><path class="cls-14" d="M533.8 394.81l28.14-20.56.85 1.2 2 2.52a53.9 53.9 0 003 3.61l-26.38 22.76s-2-2.26-3.89-4.69c-.94-1.2-1.88-2.4-2.59-3.29zM584.77 173.23l16.46 30.71-4.06 2.32c-1 .54-2 1.2-2.73 1.66l-1.23.79-18.85-29.31 1.6-1c1-.61 2.22-1.44 3.55-2.16zM796.85 253.77l-32.7 12-1.68-4.35c-.94-2.14-1.89-4.27-1.89-4.27l31.64-14.63 2.44 5.55c1.1 2.87 2.19 5.7 2.19 5.7zM571.55 435.77l12.55-19.46 1.77 1.1c1.13.7 2.71 1.74 4.72 2.81l3.2 1.79c1.15.61 2.39 1.19 3.66 1.83 2.52 1.33 5.35 2.45 8.11 3.69 2.84 1.05 5.63 2.25 8.36 3.07 1.35.43 2.65.89 3.89 1.26l3.54 1c2.18.65 4 1 5.34 1.32l2 .46 1.62-7.72.94.21 2.71.47c1.17.19 2.57.51 4.21.7s3.48.47 5.49.67a122.73 122.73 0 0058.34-8.41c3.73-1.58 6.84-2.93 8.93-4.05l3.33-1.68 3.73 7 10.93 20.41-6.33 3.19c-2 1-4.56 2.05-7.43 3.33-1.44.62-3 1.18-4.66 1.82s-3.37 1.32-5.23 1.88a149.23 149.23 0 01-25.67 6.31 154.93 154.93 0 01-60.21-2.49 156.83 156.83 0 01-41.75-16.76c-2-1.12-3.44-2.1-4.47-2.73zm135.78-.65a3.93 3.93 0 107.21-3.11 4 4 0 00-5.16-2 4.05 4.05 0 00-2.05 5.11zm-13.11 4.5a3.94 3.94 0 001.91 2.38 4 4 0 005.57-4.75 4 4 0 00-4.93-2.54 3.91 3.91 0 00-2.24 1.94 4 4 0 00-.31 2.97zm-13.5 3.18a4 4 0 001.66 2.55 4 4 0 006-4.17 4 4 0 00-4.66-3 3.88 3.88 0 00-2.42 1.71 4 4 0 00-.58 2.91zM667 444.6a3.92 3.92 0 107.8-.84 3.92 3.92 0 00-7.8.84zm-13.86.42a3.93 3.93 0 107.85 0 4 4 0 00-4-3.88 4 4 0 00-3.87 3.86zm-13.83-1a3.93 3.93 0 107.82.73 3.93 3.93 0 00-7.82-.73zM534.93 208.29l18 14.52-1.27 1.65c-.78 1.08-2 2.52-3.29 4.4s-2.86 4-4.31 6.45c-.74 1.22-1.56 2.44-2.29 3.74l-2.2 3.95a130.78 130.78 0 00-6.94 15.14c-.4 1.06-.78 2-1.11 2.9s-.54 1.64-.76 2.27l-.65 2 7.52 2.41-.31.92c-.21.6-.48 1.49-.78 2.64s-.7 2.52-1.14 4.11-.78 3.42-1.23 5.4a126.93 126.93 0 00-2.43 29.57 125.61 125.61 0 004.69 29.26c.49 2 1.17 3.7 1.65 5.28s1 2.91 1.43 4l1.32 3.48-7.3 3-21.43 8.77-2.53-6.63c-.74-2.13-1.57-4.75-2.55-7.74q-.62-2.28-1.31-4.84l-.71-2.64c-.2-.9-.4-1.83-.61-2.78-.39-1.89-.9-3.85-1.23-5.91s-.69-4.19-1.06-6.39-.52-4.46-.79-6.78-.34-4.7-.51-7.11a154.77 154.77 0 0119.69-83.65c1.82-3.42 3.8-6.37 5.45-9.05s3.33-4.86 4.63-6.7zm-13.51 135.13a3.93 3.93 0 102.34 7.5 4 4 0 002.55-4.92 4 4 0 00-4.89-2.58zm-3.1-13.51a3.93 3.93 0 101.58 7.69 4 4 0 003-4.63 4 4 0 00-4.58-3.06zm-1.73-13.75a3.93 3.93 0 10.8 7.81 3.93 3.93 0 00-.8-7.81zm-.36-13.86a3.93 3.93 0 100 7.85 4 4 0 003.88-3.94 4 4 0 00-3.88-3.91zm1-13.82a3.92 3.92 0 103.48 4.27 4 4 0 00-3.45-4.27zm2.39-13.66a3.92 3.92 0 103 4.6 3.94 3.94 0 00-2.97-4.6zM772.56 203.77L755.09 219l-1.37-1.56c-.85-1-2.18-2.37-3.76-4a130 130 0 00-12.36-11.16l-3.6-2.8c-1.19-.91-2.43-1.7-3.58-2.52-2.31-1.67-4.6-3-6.52-4.22s-3.63-2.05-4.77-2.73l-1.82-1-3.68 7-3.33-1.66c-1.06-.53-2.34-1.18-3.86-1.81l-2.4-1.06-1.31-.57-1.39-.53a126 126 0 00-28.7-7.57l-4-.51c-1.34-.14-2.68-.21-4-.33-2.65-.28-5.27-.24-7.8-.35s-5 0-7.3.14-4.51.24-6.52.51-3.86.41-5.49.67l-4.2.7c-1.17.17-2.07.41-2.69.54l-1 .21-1.64-7.75-4.84-22.64 1.81-.4c1.18-.29 2.93-.56 5.16-.94l3.69-.61 4.38-.52c3.12-.43 6.67-.59 10.53-.86a159.32 159.32 0 0126.4 1.13 155.59 155.59 0 0157.15 19 157.89 157.89 0 0121.8 14.94c1.47 1.26 2.89 2.46 4.24 3.6s2.52 2.33 3.68 3.4c2.33 2.11 4.21 4.12 5.78 5.74.78.82 1.49 1.54 2.08 2.18l1.48 1.68zm-130.66-37a3.93 3.93 0 10-7.79 1 4 4 0 004.39 3.36 4 4 0 003.4-4.39zm13.85-.68a3.93 3.93 0 10-7.85.23 3.93 3.93 0 007.85-.23zm13.84.7a4 4 0 00-6.53-3.3 3.94 3.94 0 00-.29 5.57 3.87 3.87 0 002.62 1.36 4 4 0 004.2-3.66zm13.71 2.08a3.93 3.93 0 10-7.74-1.33 4.06 4.06 0 003.2 4.53 4 4 0 004.54-3.23zm13.44 3.43a3.92 3.92 0 10-7.56-2.11 3.92 3.92 0 007.56 2.11zm13 4.74a3.93 3.93 0 10-7.31-2.86 4 4 0 002.24 5.08 3.84 3.84 0 003-.1 4 4 0 002.1-2.16z"/><path class="cls-14" d="M835.51 351.71a7.36 7.36 0 00-.69-5.59 7.28 7.28 0 00-4.21-3.45l.67-3 .67-3.94c.44-2.62.94-5.24 1.19-7.9.71-5.28 1.07-10.6 1.32-15.92a173.29 173.29 0 00-1.74-31.91 180.61 180.61 0 00-20.15-60.29 178.51 178.51 0 00-94.63-81.81c-1.71-.71-3.49-1.24-5.24-1.83l-5.27-1.74-.42 1.37 5.23 1.73c1.74.58 3.5 1.12 5.2 1.82a177.11 177.11 0 0193.87 81.15 179 179 0 0120 59.81 171.3 171.3 0 011.73 31.6c-.25 5.28-.6 10.55-1.31 15.79-.25 2.63-.74 5.23-1.17 7.84l-.67 3.9-.66 3a7.77 7.77 0 00-5.25 1.28 7.5 7.5 0 002.25 13.46 7.43 7.43 0 009.28-5.37zM618.21 267.72a1.73 1.73 0 00-.81 1 1.67 1.67 0 00.12 1.26l-.61.4-.76.54c-.51.36-1 .71-1.5 1.11-1 .75-1.93 1.57-2.85 2.41a40.22 40.22 0 00-5 5.54 42.06 42.06 0 00-6.63 13.29 41.64 41.64 0 002.12 29.14c.16.4.37.78.56 1.17l.58 1.15.3-.16-.58-1.15c-.19-.38-.39-.76-.56-1.15a41.39 41.39 0 01-2.1-28.91 41.91 41.91 0 016.58-13.18 40.79 40.79 0 014.93-5.5c.91-.83 1.84-1.64 2.82-2.39.48-.4 1-.74 1.49-1.1l.76-.53.6-.4a1.8 1.8 0 001.08.66 1.87 1.87 0 001.22-.2 1.8 1.8 0 00.64-2.39 1.74 1.74 0 00-2.4-.61zM721.998 349.592l3.727-6.566 58.598 33.261-3.727 6.566zM649.66 280.41l-1 .24c-.56.16-1.15.42-1.83.62l-.5.15-.73.35-1.29.6-1.25.59-17.72-37.52 1.25-.59 1.29-.61.72-.34 1.77-.72c1.22-.49 2.46-1 3.62-1.37l1.68-.57c.55-.19 1.06-.35 1.41-.44l2.58-.66zM658.51 279.72l-1-.05a13.11 13.11 0 00-2.28 0 15 15 0 00-2.27.16l-1 .15-6.48-41 2.64-.37a54 54 0 015.83-.43 47.93 47.93 0 015.84.07l2.64.17zM667.11 282l-.94-.45-2.16-.76c-.79-.25-1.61-.41-2.21-.58a4.69 4.69 0 00-1-.2l7.39-40.84s1.05.14 2.59.52 3.61.86 5.63 1.49 4 1.4 5.48 2l2.41 1.08zM674.48 287l-.78-.68-.78-.72c-.3-.25-.65-.47-1-.72a14.7 14.7 0 00-1.89-1.28l-.89-.53 20.37-36.15 2.28 1.34a52.08 52.08 0 014.83 3.28c.86.64 1.72 1.26 2.49 1.89s1.45 1.27 2.06 1.79l2 1.79zM679.66 293.89l-.17-.35-.08-.18v-.05c-.19-.36.24.5.2.41v-.08c-.06-.11-.14-.23-.22-.36l-1.18-2-1.38-1.83a4 4 0 00-.48-.57l-.2-.21 31.18-27.39.49.55a19 19 0 011.23 1.47c1 1.25 2.27 2.95 3.5 4.68s2.23 3.58 3 4.95l.54.93.12.2.79 1.59c0 .07.06.13.09.18l.16.35zM682.45 302.62s-.06-.41-.14-1-.34-1.41-.52-2.22a15.83 15.83 0 00-.59-1.92c-.16-.5-.26-.83-.26-.83l37.61-17.56s.51 1.21 1.21 3.06c.35.93.75 2 1.14 3.18.19.56.43 1.24.57 1.75s.27 1 .4 1.54c.51 2.06 1 4.13 1.29 5.71s.39 2.63.39 2.63zM682.21 311.51l.15-1a16.5 16.5 0 00.27-2.26 21.81 21.81 0 000-3.32l41.45-2.1.1 2.66c.08 1.59-.09 3.71-.19 5.83a54.76 54.76 0 01-.69 5.78l-.43 2.61zM679 319.82l.53-.89c.3-.55.61-1.32 1-2.06s.57-1.56.81-2.14c.11-.29.2-.54.26-.71s.07-.27.07-.27l39.84 11.62s-.08.26-.2.7l-.61 1.82c-.55 1.49-1.18 3.51-2.07 5.44s-1.77 3.85-2.53 5.24-1.33 2.3-1.33 2.3zM673.3 326.62l.75-.7a16 16 0 001.62-1.6 18 18 0 001.47-1.74l.61-.84 33.81 24.06L710 348a56.28 56.28 0 01-3.78 4.46 51.67 51.67 0 01-4.14 4.13l-2 1.78zM665.29 331.28l.23-.06.27-.09.51-.24 2.76-1.31-.41.21.07-.05.13-.08.26-.16.52-.31.92-.55a5.36 5.36 0 00.85-.59l23.95 33.89-.59.43c-.38.28-.92.65-1.59 1.06l-2.31 1.41-1.32.78-.67.39-.35.2-.17.1-.08.05-1.52.77-2.76 1.3-.51.24-.92.38-.84.34zM656.92 332.9h1a17.63 17.63 0 002.26-.26 15.25 15.25 0 002.23-.46l1-.24L675 371.76l-2.58.66a49.63 49.63 0 01-5.73 1.16 57.42 57.42 0 01-5.81.68l-2.66.12zM648.1 331.72l.27.1.73.17a22.19 22.19 0 002.23.51c.82.11 1.64.28 2.26.33l1 .05-2.28 41.43-2.64-.17c-1.59-.14-3.68-.47-5.77-.8s-4.13-.92-5.67-1.29l-1.86-.5-.69-.22zM640.17 327.67a22.53 22.53 0 002.78 1.81 18.63 18.63 0 002 1l.93.44-15.73 38.4-2.41-1.08a55.71 55.71 0 01-5.19-2.64c-1.83-1.08-3.68-2.11-5-3.07l-2.08-1.53zM634 321.28l.64.83a14.87 14.87 0 001.42 1.78c.58.59 1.08 1.25 1.56 1.65l.78.68-27.51 31.08-2-1.78c-1.18-1.08-2.6-2.67-4-4.24a54.58 54.58 0 01-3.65-4.56l-1.57-2.14zM667.2 327l.5-.25-.44.21zM676.5 294.65v.06l.06.13.11.23v.08zM635.35 317.38c-.07-.12.5 1 .25.49l-.19-.39v-.06z"/><path class="cls-14" d="M644.86 285.63l-.45.21v.05c-.22.14-.51.32-.89.54s-.52.28-.78.48l-.86.66c-.31.24-.67.47-1 .76l-1 1a22.38 22.38 0 00-4.41 5.73 23.89 23.89 0 00-2.77 9 24.28 24.28 0 00.12 5.37c.07.46.13.92.19 1.39l.36 1.38.16.71a4 4 0 00.19.53c.12.34.23.69.32 1a5.2 5.2 0 00.36.86l.49 1 .49 1 .06.13.1.16a23.94 23.94 0 001.69 2.59 22.76 22.76 0 004.4 4.54 25.15 25.15 0 005.69 3.27 26.36 26.36 0 006.55 1.59 25.44 25.44 0 006.8-.35c.56-.15 1.11-.28 1.67-.41l.42-.09.3-.12.6-.21c.2-.07.41-.12.62-.18a.51.51 0 00.17-.05l.3-.14.59-.28 1.93-.91.08-.05.18-.12.37-.22.75-.45a10 10 0 001.42-1 23.12 23.12 0 002.62-2.22 25.47 25.47 0 004.06-5.47 26.59 26.59 0 002.31-6.33 25.05 25.05 0 00.42-6.55 30.75 30.75 0 00-.46-3.17c-.12-.51-.24-1-.37-1.53s-.28-.76-.39-1.16a23.17 23.17 0 00-1.53-3.56l-.15-.25-.4-.64c-.28-.43-.48-.89-.79-1.28a24.3 24.3 0 00-8.24-7.35 24 24 0 00-9-2.67 22.38 22.38 0 00-7.21.5l-1.39.33c-.39.11-.62.23-.91.32s-.54.16-.78.22a3.37 3.37 0 00-.55.24l-.59.27-1.71.82zm3.36.88a2.56 2.56 0 01.53-.23 5.83 5.83 0 00.63-.16c.25-.07.41-.17.75-.27s.82-.18 1.26-.3a20.58 20.58 0 016.52-.45 21.17 21.17 0 0115.61 9.07 13.28 13.28 0 01.71 1.16l.37.58.13.2a21 21 0 011.45 3.37 3.81 3.81 0 00.15.44 3 3 0 01.17.51c.1.47.21.93.33 1.39a7.53 7.53 0 01.24 1.42 9.94 9.94 0 01.18 1.44 23.35 23.35 0 01-.39 5.93 24.09 24.09 0 01-2.08 5.74 24.62 24.62 0 01-3.67 4.95 21.71 21.71 0 01-2.38 2 7.21 7.21 0 01-1.29.89l-.67.41-.34.21-.17.1-1.84.86-.59.29-.3.14a.64.64 0 01-.15 0l-.5.13-.49.17-.24.1-.38.08c-.5.11-1 .24-1.5.38a21.34 21.34 0 01-12.13-1.06 22.72 22.72 0 01-5.15-3 20.36 20.36 0 01-4-4.11 20.88 20.88 0 01-1.53-2.34l-.1-.15-.49-1-.49-1a3.89 3.89 0 01-.34-.82 7 7 0 00-.25-.85 2.75 2.75 0 01-.16-.44l-.15-.64c-.09-.42-.2-.84-.31-1.25s-.12-.84-.17-1.26a20.75 20.75 0 012.39-13 20.43 20.43 0 014-5.18c.34-.3.65-.59.94-.88s.64-.46.91-.68l.78-.6c.24-.18.5-.29.7-.43.61-.36 1-.6 1.18-.72l1.73-.82z"/><path class="cls-14" d="M626.53 242.09l.58-.27c.26-.12.26-.14 1-.44 1.15-.48 2.43-1 3.81-1.49l2.16-.77 1.15-.38a11.31 11.31 0 011.09-.33c1.31-.36 2.7-.71 4.19-1.06a69.71 69.71 0 0121.81-1.47 70.58 70.58 0 0151.9 30.21c.87 1.21 1.61 2.5 2.4 3.78l1.15 1.94.56 1c-.69-1.38 1 2 .86 1.69v.07l.06.13.13.26c.33.69.66 1.4 1 2.1.15.23 1.13 2.57 1.78 4.31.34.91.68 1.84 1 2.77s.67 2 .83 2.65c.41 1.53.8 3.08 1.16 4.65s.6 3.15.84 4.75.49 3.21.54 4.84a72 72 0 01-1.29 19.71 70.64 70.64 0 01-19.18 35.5 70.81 70.81 0 01-7.9 6.78 46.81 46.81 0 01-4.27 2.93l-2.22 1.34-1.11.66-.56.32-.28.16-.14.08c-.75.38 1.49-.74-1.73.88l-2.37 1.12-.59.28-.3.14-.69.29c-1 .42-2 .82-3 1.2s-2 .75-3.06 1.1l-1.54.51-1.27.34c-1.68.44-3.37.84-5.06 1.22A70.7 70.7 0 01612.64 362a71.89 71.89 0 01-18.38-21.48l-.28-.5-.14-.24-.07-.13-.84-1.66-.25-.52-.49-1-.49-1-.24-.51-.06-.13-.12-.28-.27-.64c-.71-1.73-1.36-3.46-2-5.2l-.44-1.3c-.13-.42-.31-.92-.38-1.23-.19-.71-.37-1.42-.56-2.12-.35-1.41-.68-2.82-1-4.21s-.46-2.82-.65-4.21a72 72 0 01-.32-16.22 71.21 71.21 0 018.34-26.94 69.63 69.63 0 0113.3-17.34q1.68-1.56 3.2-2.91c1-.87 2.06-1.62 3-2.34l2.64-1.94c.81-.57 1.59-1 2.27-1.46 2.76-1.69 4.27-2.52 4.27-2.52l-1-2s-1.56.86-4.4 2.6c-.71.45-1.51.92-2.35 1.51l-2.73 2c-1 .74-2 1.51-3.08 2.42s-2.16 1.92-3.3 3A72.15 72.15 0 00592 271.41a72.44 72.44 0 00-8.22 44.49c.2 1.44.41 2.89.67 4.34s.66 2.89 1 4.35l.57 2.18c.07.33.25.85.39 1.28l.46 1.35c.63 1.8 1.31 3.61 2.05 5.39l.28.67.12.3.06.12.25.52.48 1 .49 1 .25.52.89 1.77.07.12.15.26.29.51a74.09 74.09 0 0019 22.16A74.09 74.09 0 00628.94 374a72.92 72.92 0 0041.45 3.82c1.74-.39 3.49-.81 5.22-1.27l1.31-.35 1.6-.53c1.06-.36 2.12-.74 3.18-1.13s2.1-.82 3.13-1.25l.72-.3.29-.14.59-.28 2.38-1.12 1.83-.93.14-.09.29-.16.58-.33 1.15-.68 2.28-1.38a48.54 48.54 0 004.41-3 74.22 74.22 0 008.15-7 72.92 72.92 0 0019.78-36.63 74.55 74.55 0 001.34-20.33c-.06-1.67-.35-3.33-.56-5s-.47-3.3-.87-4.9-.77-3.22-1.19-4.8c-.17-.7-.56-1.82-.87-2.74s-.68-1.93-1-2.88-.73-1.9-1.12-2.83c-.49-1.19-.51-1.17-.71-1.61-.33-.71-.67-1.41-1-2.11l-.12-.26-.06-.12v-.07l-.91-1.8-.59-1c-.39-.67-.78-1.34-1.18-2-.82-1.32-1.58-2.65-2.48-3.9a72.81 72.81 0 00-53.54-31.16 71.78 71.78 0 00-22.56 1.44c-1.53.36-3 .72-4.33 1.09l-.52.14-.6.2-1.19.4-2.25.79c-1.44.53-2.75 1.06-4 1.56-.76.31-.74.32-1 .44l-.58.28-2.28 1.07 1 2z"/><path class="cls-14" d="M664.17 321.41a8 8 0 10.83-.41h-.07l-.13.06-.25.12-.23.11-.12.07zM671.19 298.15c.38.74-.51-1-.42-.83v.06l.06.13.24.51.07.1z"/><path class="cls-14" d="M651.87 292.69l.29.8a12.66 12.66 0 00-2.43 1 12.43 12.43 0 00-4.74 4.46l-.87-.42c-1.59-.74-2.71-1.17-2.71-1.17s-.1.18-.29.49a8.41 8.41 0 00-.66 1.32 15.86 15.86 0 00-.78 2c-.14.36-.18.76-.3 1.15l-.16.59c0 .2-.05.41-.08.61A17.55 17.55 0 00639 308c.11.6.17 1.1.21 1.46a3.37 3.37 0 00.13.54s1.21-.05 3-.25l1.47-.18a11.92 11.92 0 00.84 2 12.77 12.77 0 001.27 1.92c-.47.42-.91.82-1.3 1.19a49.256 49.256 0 00-2.09 2.12l.32.46c.22.28.61.62 1 1.09a4.58 4.58 0 00.71.67l.82.74a18.12 18.12 0 002 1.33 19 19 0 002.14 1.11l1 .36a4.37 4.37 0 001 .31c.61.11 1.09.32 1.46.35l.56.07s.39-1.13.85-2.85c.18-.65.37-1.44.55-2.27a12.54 12.54 0 003.89-.36c.3.83.59 1.61.88 2.28.68 1.66 1.22 2.75 1.22 2.75s.13 0 .28-.11a1.36 1.36 0 01.28-.08h.33l.42-.2 1.86-.88.28-.13.36-.24c.33-.21.68-.4 1-.6s.63-.51 1-.75a5.33 5.33 0 00.92-.79c.28-.29.62-.5.86-.8a17 17 0 001.33-1.6 10.54 10.54 0 00.84-1.22l.28-.49s-.92-.76-2.34-1.81c-.55-.41-1.22-.87-1.93-1.33a12.86 12.86 0 001.39-3.83h2.15c.91 0 1.66-.06 2.16-.09l.82-.06v-.56a7.09 7.09 0 000-1.48v-1c0-.36-.12-.71-.17-1.09l-.06-.58-.17-.57c-.1-.35-.18-.85-.26-1.11a1.41 1.41 0 01-.16-.54v-.14a.11.11 0 000-.05l-.06-.14-.14-.28c-.17-.37-.35-.73-.52-1.09s-.33-.72-.5-1.07c-.2-.29-.38-.58-.53-.85a7.65 7.65 0 00-.85-1.23l-.33-.45-.7.4c-.44.25-1.09.64-1.85 1.13l-1.26.84a12.35 12.35 0 00-3.34-3c.16-.41.31-.81.44-1.17.6-1.66.92-2.81.92-2.81l-.52-.24c-.16-.07-.34-.19-.58-.28s-.51-.16-.8-.27a16.53 16.53 0 00-4.42-.92 18.4 18.4 0 00-4.46.22 14.2 14.2 0 01-1.44.36l-.22.05h-.13s.19 1.09.76 2.78z"/></g><g class="cls-24"><path class="cls-14" d="M338.89 48.54h1.31v4.48h-1.31zM343.41 48.54h1.31v4.48h-1.31zM347.66 49.06h94.1v3.45h-94.1zM488.69 56.65H490v4.48h-1.31zM493.2 56.65h1.31v4.48h-1.31zM499.61 58.03h185.75v1.72H499.61zM824.54 38.11H696.65v-1.73h127.89zM625.33 40.65h1.31v4.48h-1.31zM629.85 40.65h1.31v4.48h-1.31zM636.25 42.02h49.27v1.72h-49.27zM749.02 28.87h2.19L730.77 3.32h-2.19zM754.07 28.87h2.18L735.81 3.32h-2.18zM759.12 28.87h2.18L740.87 3.32h-2.19zM764.17 28.87h2.18L745.91 3.32h-2.18zM769.22 28.87h2.18L750.96 3.32h-2.18zM774.27 28.87h2.18L756.01 3.32h-2.18zM779.32 28.87h2.18L761.06 3.32h-2.18zM784.37 28.87h2.18L766.11 3.32h-2.18zM789.42 28.87h2.18L771.16 3.32h-2.18zM794.47 28.87h2.18L776.21 3.32h-2.18zM799.52 28.87h2.18L781.26 3.32h-2.18zM804.57 28.87h2.18L786.31 3.32h-2.18zM809.62 28.87h2.18L791.36 3.32h-2.18zM643.52 28.87h1.84l-1.84-2.31zM643.52 23l4.71 5.89h2.18l-6.89-8.62zM643.52 16.67l9.76 12.2h2.18l-11.94-14.93zM643.52 10.36l14.81 18.51h2.18l-17-21.24zM643.52 4l19.86 24.83h2.18L645.12 3.32h-1.6zM668.43 28.87h2.18L650.17 3.32h-2.18zM673.48 28.87h2.18L655.22 3.32h-2.19zM678.52 28.87h2.19L660.27 3.32h-2.19zM683.57 28.87h2.19L665.32 3.32h-2.19zM688.62 28.87h2.18L670.36 3.32h-2.18zM693.67 28.87h2.18L675.41 3.32h-2.18zM698.72 28.87h2.18L680.46 3.32h-2.18zM703.77 28.87h2.18L685.51 3.32h-2.18zM708.82 28.87H711L690.56 3.32h-2.18zM713.87 28.87h2.18L695.61 3.32h-2.18zM718.92 28.87h2.18L700.66 3.32h-2.18zM723.97 28.87h2.18L705.71 3.32h-2.18zM729.02 28.87h2.18L710.76 3.32h-2.18zM734.07 28.87h2.18L715.81 3.32h-2.18zM739.12 28.87h2.18L720.86 3.32h-2.18zM744.17 28.87h2.18L725.91 3.32h-2.18zM574.46 26.65l-4.21-5.25h-1.5l4.2 5.25zM577.93 26.65l-4.2-5.25h-1.5l4.2 5.25zM581.41 26.65l-4.2-5.25h-1.5s1.84 2.31 4.2 5.25zM584.89 26.65l-4.2-5.25h-1.5s1.84 2.31 4.2 5.25zM588.37 26.65l-4.2-5.25h-1.5l4.2 5.25zM591.85 26.65l-4.2-5.25h-1.5l4.2 5.25zM595.33 26.65l-4.2-5.25h-1.5l4.2 5.25zM598.81 26.65l-4.2-5.25h-1.51l4.21 5.25zM602.29 26.65c-2.36-2.94-4.2-5.25-4.2-5.25h-1.51l4.21 5.25zM605.77 26.65l-4.21-5.25h-1.5l4.21 5.25zM609.25 26.65L605 21.4h-1.5l4.21 5.25zM612.73 26.65l-4.21-5.25H607l4.21 5.25zM616.21 26.65L612 21.4h-1.5l4.2 5.25zM619.69 26.65l-4.21-5.25H614l4.2 5.25zM623.17 26.65L619 21.4h-1.5l4.2 5.25zM626.65 26.65l-4.21-5.25h-1.5l4.2 5.25zM630.13 26.65l-4.21-5.25h-1.5l4.2 5.25zM633.61 26.65l-4.21-5.25h-1.5l4.2 5.25zM637.09 26.65l-4.21-5.25h-1.5l4.2 5.25zM640.21 26.65v-.44l-3.85-4.81h-1.5l4.2 5.25zM640.21 21.86l-.37-.46h-1.5l1.87 2.34zM512 26.65l-1.83-2.28v1.88l.33.4zM515.44 26.65l-4.21-5.25h-1.1v.5l3.81 4.75zM518.92 26.65l-4.21-5.25h-1.5l4.2 5.25zM522.4 26.65l-4.21-5.25h-1.5s1.84 2.31 4.2 5.25zM525.88 26.65l-4.21-5.25h-1.5l4.2 5.25zM529.36 26.65l-4.21-5.25h-1.5l4.2 5.25zM532.83 26.65l-4.2-5.25h-1.5l4.2 5.25zM536.31 26.65l-4.2-5.25h-1.5l4.2 5.25zM539.79 26.65l-4.2-5.25h-1.5s1.84 2.31 4.2 5.25zM543.27 26.65l-4.2-5.25h-1.51l4.21 5.25zM546.75 26.65l-4.2-5.25H541l4.21 5.25zM550.23 26.65L546 21.4h-1.51l4.21 5.25zM553.71 26.65l-4.2-5.25H548l4.21 5.25zM557.19 26.65L553 21.4h-1.51l4.21 5.25zM560.67 26.65c-2.36-2.94-4.2-5.25-4.2-5.25H555l4.21 5.25zM564.15 26.65l-4.21-5.25h-1.5l4.21 5.25zM567.63 26.65l-4.2-5.25h-1.51l4.21 5.25zM571.11 26.65l-4.21-5.25h-1.5l4.21 5.25zM688.51 41.81h4.31v18h-4.31z"/><path class="cls-14" d="M639.92 3.56V7h-250v14.57h117.53V25h-121V3.56z"/><path class="cls-14" d="M405.56 11.14h234.37v6.9H405.56zM578.9 47.26h106.55v7.07H578.9zM394.05 10.91h7.2v7.19h-7.2zM567.83 47.18h7.2v7.19h-7.2zM472.36 56.11h3.29v7.9h-3.29zM466.12 56.11h3.29v7.9h-3.29zM459.87 56.11h3.29v7.9h-3.29zM453.62 56.11h3.29v7.9h-3.29zM453.61 30.77v21.78h22V30.77zM472.34 34v15.3h-15.45V34zM699.42 59.7l-2.77-2.78V55l4.72 4.73zM704.71 59.7l-8.06-8.06v-2l10 10zM710 59.7l-13.35-13.35v-2L712 59.7zM715.29 59.7L697.8 42.21h2l17.43 17.49zM720.57 59.7l-17.48-17.49H705l17.52 17.49zM725.86 59.7l-17.48-17.49h2l17.43 17.49zM731.15 59.7l-17.48-17.49h2L733.1 59.7zM736.44 59.7L719 42.21h1.95c5.7 5.69 11.55 11.55 17.49 17.49zM741.72 59.7l-17.48-17.49h2l17.43 17.49zM747 59.7l-17.47-17.49h2L749 59.7zM752.3 59.7l-17.48-17.49h1.95l17.48 17.49zM757.59 59.7l-17.48-17.49h1.95l17.48 17.49zM762.88 59.7L745.4 42.21h2l17.43 17.49zM768.17 59.7l-17.49-17.49h2l17.44 17.49zM773.45 59.7L756 42.21h1.95L775.4 59.7zM778.74 59.7l-17.48-17.49h2l17.43 17.49zM784 59.7l-17.45-17.49h2L786 59.7zM789.32 59.7l-17.48-17.49h1.95l17.48 17.49zM794.6 59.7l-17.48-17.49h2c5.69 5.69 11.55 11.54 17.49 17.49zM799.89 59.7l-17.48-17.49h2l17.43 17.49zM805.18 59.7L787.7 42.21h1.95l17.48 17.49z"/></g><g class="cls-24"><path class="cls-14" d="M366.38 41.58h6.81v4.32h-6.81zM366.38 34.73h6.81v4.32h-6.81zM357 41.58h6.81v4.32H357zM357 34.73h6.81v4.32H357zM277.59 33.33h1.31v4.48h-1.31zM273.07 33.33h1.31v4.48h-1.31zM25.36 24.37h1.31v4.48h-1.31zM-12.78 34.71h280.76v1.72H-12.78zM8.36-4.74L12.57.51h1.5L9.86-4.74zM4.88-4.74L9.09.51h1.5L6.38-4.74zM1.4-4.74L5.61.51h1.5l-4.2-5.25zM-2.08-4.74L2.13.51h1.5l-4.2-5.25zM-5.56-4.74L-1.35.51h1.5L-4-4.74zM67.38-4.74l4.2 5.25h1.11V0l-3.81-4.74zM63.9-4.74C66.26-1.8 68.1.51 68.1.51h1.51L65.4-4.74zM60.42-4.74l4.2 5.25h1.51l-4.2-5.25zM56.94-4.74L61.15.51h1.5l-4.21-5.25zM53.46-4.74L57.67.51h1.5L55-4.74zM50-4.74L54.19.51h1.5l-4.21-5.25zM46.5-4.74L50.71.51h1.5L48-4.74zM43-4.74L47.23.51h1.5l-4.2-5.25zM39.54-4.74L43.75.51h1.5l-4.2-5.25zM36.06-4.74L40.27.51h1.5l-4.2-5.25zM32.58-4.74L36.79.51h1.5s-1.84-2.31-4.2-5.25zM29.11-4.74l4.2 5.25h1.5l-4.2-5.25zM25.63-4.74l4.2 5.25h1.5l-4.2-5.25zM22.15-4.74l4.2 5.25h1.5S26-1.8 23.65-4.74zM18.67-4.74l4.2 5.25h1.5l-4.2-5.25zM15.19-4.74l4.2 5.25h1.5l-4.2-5.25zM11.71-4.74l4.2 5.25h1.51l-4.21-5.25z"/><path class="cls-14" d="M-57.11 18.35V14.9h250V.34H75.37v-3.45h121v21.46z"/><path class="cls-14" d="M-57.11 3.88h234.37v6.9H-57.11zM181.58 3.81h7.2V11h-7.2zM378.49 29.52h-681.34v-5.17h681.34z"/><path class="cls-14" d="M-81.92 24.34h134.5v14.65h-134.5z"/></g><g class="cls-24"><path class="cls-14" d="M239.03 555.96h1.31v4.48h-1.31zM307.79 555.96h1.31v4.48h-1.31zM-2.28 548.38h280.76v1.72H-2.28zM21.78 611.44h1.31v4.48h-1.31zM26.29 611.44h1.31v4.48h-1.31zM30.54 611.96h94.1v3.45h-94.1zM507.43 601h-127.9v-1.72h127.9zM308.22 603.55h1.31v4.48h-1.31zM312.73 603.55h1.31v4.48h-1.31zM319.14 604.92h49.27v1.72h-49.27zM431.91 591.77h2.18l-20.44-25.55h-2.18zM436.96 591.77h2.18l-20.44-25.55h-2.18zM442.01 591.77h2.18l-20.44-25.55h-2.18zM447.06 591.77h2.18l-20.44-25.55h-2.18zM452.11 591.77h2.18l-20.44-25.55h-2.18zM457.15 591.77h2.19l-20.44-25.55h-2.19zM462.21 591.77h2.18l-20.44-25.55h-2.19zM467.25 591.77h2.19L449 566.22h-2.19zM472.3 591.77h2.19l-20.44-25.55h-2.19zM477.35 591.77h2.18l-20.44-25.55h-2.18zM482.4 591.77h2.18l-20.44-25.55h-2.18zM487.45 591.77h2.18l-20.44-25.55h-2.18zM492.5 591.77h2.18l-20.44-25.55h-2.18zM497.55 591.77h2.18l-20.44-25.55h-2.18zM502.6 591.77h2.18l-20.44-25.55h-2.18zM507.65 591.77h2.18l-20.44-25.55h-2.18zM512.7 591.77h2.18l-20.44-25.55h-2.18zM515.17 585.82l-15.68-19.6h-2.18l17.86 22.33zM515.17 579.51l-10.63-13.29h-2.18l12.81 16zM515.17 573.2l-5.58-7h-2.18l7.76 9.7zM515.17 566.88l-.53-.66h-2.18l2.71 3.39zM326.4 591.77h1.84l-1.84-2.3zM326.4 585.88l4.71 5.89h2.18l-6.89-8.62zM326.4 579.57l9.76 12.2h2.18l-11.94-14.93zM326.4 573.26l14.81 18.51h2.18l-17-21.24zM326.4 567c3.34 4.16 19.86 24.82 19.86 24.82h2.18L328 566.22h-1.6zM351.31 591.77h2.18l-20.44-25.55h-2.18zM356.36 591.77h2.18l-20.44-25.55h-2.18zM361.41 591.77h2.18l-20.44-25.55h-2.18zM366.46 591.77h2.18l-20.44-25.55h-2.18zM371.51 591.77h2.18l-20.44-25.55h-2.18zM376.56 591.77h2.18l-20.44-25.55h-2.19zM381.61 591.77h2.18l-20.44-25.55h-2.18zM386.65 591.77h2.19l-20.44-25.55h-2.19zM391.7 591.77h2.19l-20.44-25.55h-2.19zM396.75 591.77h2.18l-20.43-25.55h-2.19zM401.8 591.77h2.18l-20.44-25.55h-2.18zM406.85 591.77h2.19l-20.45-25.55h-2.18zM411.9 591.77h2.18l-20.44-25.55h-2.18zM416.95 591.77h2.18l-20.44-25.55h-2.18zM422 591.77h2.18l-20.44-25.55h-2.18zM427.05 591.77h2.18l-20.44-25.55h-2.18zM448.67 545.81l5.91 7.37h2.16l-5.9-7.37zM453.69 545.81l5.9 7.37h2.16l-5.9-7.37zM458.7 545.81l5.9 7.37h2.16l-5.9-7.37zM471.1 552.35l-5.23-6.54h-2.16l5.9 7.37h1.49zM471.1 546.08l-.22-.27h-2.16l2.38 3zM349.87 553.18h1.83l-1.83-2.28zM349.87 545.81v1.53l4.68 5.84h2.16l-5.9-7.37zM353.65 545.81l5.91 7.37h2.16l-5.9-7.37zM358.67 545.81l5.9 7.37h2.16l-5.9-7.37zM363.68 545.81l5.9 7.37h2.16l-5.9-7.37zM368.69 545.81l5.9 7.37h2.17l-5.91-7.37zM373.7 545.81l5.9 7.37h2.17l-5.9-7.37zM378.71 545.81l5.9 7.37h2.17l-5.9-7.37zM383.72 545.81l5.9 7.37h2.17l-5.9-7.37zM388.73 545.81l5.91 7.37h2.16l-5.9-7.37zM393.74 545.81l5.9 7.37h2.17l-5.9-7.37zM398.76 545.81l5.9 7.37h2.16l-5.9-7.37zM403.77 545.81l5.9 7.37h2.16l-5.9-7.37zM408.78 545.81l5.9 7.37h2.16l-5.9-7.37zM413.79 545.81l5.9 7.37h2.16l-5.9-7.37zM418.8 545.81l5.9 7.37h2.17l-5.87-7.37zM423.81 545.81l5.9 7.37h2.17l-5.9-7.37zM428.82 545.81l5.9 7.37h2.17l-5.9-7.37zM433.83 545.81l5.9 7.37h2.17l-5.9-7.37zM438.84 545.81l5.91 7.37h2.16l-5.9-7.37zM443.85 545.81l5.91 7.37h2.16l-5.9-7.37zM257.34 589.56l-4.2-5.26h-1.51l4.21 5.26zM260.82 589.56l-4.21-5.26h-1.5l4.21 5.26zM264.3 589.56l-4.21-5.26h-1.5l4.2 5.26zM267.78 589.56l-4.21-5.26h-1.5l4.2 5.26zM271.26 589.56l-4.21-5.26h-1.5l4.2 5.26zM274.74 589.56l-4.21-5.26H269l4.2 5.26zM278.22 589.56L274 584.3h-1.5l4.2 5.26zM281.7 589.56l-4.21-5.26H276l4.2 5.26zM285.18 589.56L281 584.3h-1.5l4.2 5.26zM288.65 589.56l-4.2-5.26H283l4.2 5.26zM292.13 589.56l-4.2-5.26h-1.51l4.21 5.26zM295.61 589.56l-4.2-5.26h-1.5l4.2 5.26zM299.09 589.56l-4.2-5.26h-1.51l4.21 5.26zM302.57 589.56l-4.2-5.26h-1.51l4.21 5.26zM306.05 589.56l-4.2-5.26h-1.51l4.21 5.26zM309.53 589.56l-4.2-5.26h-1.51l4.21 5.26zM313 589.56l-4.2-5.26h-1.5l4.21 5.26zM316.49 589.56l-4.2-5.26h-1.51l4.21 5.26zM320 589.56l-4.21-5.26h-1.5l4.21 5.26zM323.09 589.56v-.45l-3.85-4.81h-1.5l4.21 5.26zM323.09 584.76l-.37-.46h-1.5l1.87 2.34zM194.84 589.56l-1.84-2.29v1.88l.32.41zM198.32 589.56l-4.2-5.26H193v.5c.66.84 2.1 2.63 3.8 4.76zM201.8 589.56l-4.2-5.26h-1.51l4.21 5.26zM205.28 589.56l-4.2-5.26h-1.51l4.21 5.26zM208.76 589.56l-4.2-5.26h-1.51l4.21 5.26zM212.24 589.56L208 584.3h-1.5l4.21 5.26zM215.72 589.56l-4.21-5.26H210l4.21 5.26zM219.2 589.56l-4.2-5.26h-1.5l4.2 5.26zM222.68 589.56l-4.21-5.26H217l4.2 5.26zM226.16 589.56L222 584.3h-1.5l4.2 5.26zM229.64 589.56l-4.21-5.26h-1.5l4.2 5.26zM233.12 589.56l-4.21-5.26h-1.5l4.2 5.26zM236.6 589.56l-4.21-5.26h-1.5l4.2 5.26zM240.07 589.56l-4.2-5.26h-1.5l4.2 5.26zM243.56 589.56l-4.21-5.26h-1.5l4.2 5.26zM247 589.56l-4.2-5.26h-1.5l4.2 5.26zM250.51 589.56l-4.2-5.26h-1.5l4.2 5.26zM254 589.56l-4.2-5.26h-1.51l4.21 5.26zM371.4 604.71h4.31v18h-4.31z"/><path class="cls-14" d="M322.81 566.46v3.45h-250v14.56h117.52v3.45h-121v-21.46z"/><path class="cls-14" d="M88.44 574.04h234.37v6.9H88.44zM261.78 610.16h106.55v7.07H261.78zM76.93 573.81h7.2V581h-7.2zM250.71 610.09h7.2v7.19h-7.2zM-112.79 555.29h681.34v5.17h-681.34z"/><path class="cls-14" d="M213.12 545.82h134.5v14.65h-134.5zM568.55 550.76h-96.06v2.54h96.06zM472.53 545.99h96.09v2.4h-96.09zM136.49 593.67v21.78h22v-21.78zm18.74 3.24v15.29h-15.46v-15.29zM392.88 622.6l-13.35-13.35v-2l15.3 15.3zM398.17 622.6l-17.48-17.49h1.95l17.48 17.49zM403.46 622.6L386 605.11h1.95l17.49 17.49zM408.74 622.6l-17.48-17.49h1.95l17.48 17.49zM414 622.6l-17.48-17.49h1.95L416 622.6zM419.32 622.6l-17.48-17.49h2l17.48 17.49zM424.61 622.6l-17.48-17.49h1.95l17.48 17.49zM429.9 622.6l-17.49-17.49h1.95l17.49 17.49zM435.18 622.6l-17.48-17.49h1.95l17.48 17.49zM440.47 622.6L423 605.11h1.95l17.48 17.49zM445.76 622.6l-17.48-17.49h2l17.48 17.49zM451.05 622.6l-17.48-17.49h1.95L453 622.6zM456.34 622.6l-17.49-17.49h1.95l17.49 17.49zM461.62 622.6l-17.48-17.49h1.95l17.48 17.49zM466.91 622.6l-17.48-17.49h1.95l17.48 17.49zM472.2 622.6l-17.48-17.49h1.95l17.48 17.49zM477.49 622.6L460 605.11h2l17.48 17.49zM482.78 622.6l-17.49-17.49h1.95l17.49 17.49zM488.06 622.6l-17.48-17.49h1.95L490 622.6zM493.35 622.6l-17.48-17.49h1.95l17.48 17.49zM498.64 622.6l-17.48-17.49h1.95l17.48 17.49zM503.93 622.6l-17.48-17.49h1.95l17.48 17.49zM507.59 621l-15.86-15.86h1.95L507.59 619zM507.59 615.68L497 605.11h2l8.62 8.62zM507.59 610.39l-5.28-5.28h1.95l3.33 3.33z"/></g><g class="cls-24"><path class="cls-14" d="M759.12 584.13l-10.82 13.52h-1.81l10.82-13.52zM763.31 584.13l-10.81 13.52h-1.82l10.82-13.52zM767.51 584.13l-10.82 13.52h-1.81l10.82-13.52zM771.7 584.13l-10.82 13.52h-1.81l10.82-13.52zM775.9 584.13l-10.82 13.52h-1.81l10.81-13.52zM780.09 584.13l-10.82 13.52h-1.81l10.82-13.52zM784.28 584.13l-10.81 13.52h-1.81l10.81-13.52zM788.48 584.13l-10.82 13.52h-1.81l10.82-13.52zM792.67 584.13l-10.82 13.52H780l10.82-13.52zM796.87 584.13l-10.82 13.52h-1.81l10.82-13.52zM801.06 584.13l-10.82 13.52h-1.81l10.82-13.52zM679.59 584.13l-3.76 4.7v-2.27c.66-.82 1.31-1.63 1.94-2.43zM683.78 584.13l-7.95 9.94v-2.26l6.14-7.68zM688 584.13l-10.82 13.52h-1.33v-.6l10.34-12.92zM692.17 584.13l-10.82 13.52h-1.81l10.82-13.52zM696.36 584.13l-10.81 13.52h-1.81l10.81-13.52zM700.56 584.13l-10.82 13.52h-1.81l10.82-13.52zM704.75 584.13l-10.81 13.52h-1.82l10.82-13.52zM709 584.13l-10.82 13.52h-1.81l10.82-13.52zM713.14 584.13l-10.82 13.52h-1.81l10.82-13.52zM717.34 584.13l-10.82 13.52h-1.81l10.82-13.52zM721.53 584.13l-10.82 13.52h-1.81l10.82-13.52zM725.73 584.13l-10.82 13.52h-1.81l10.82-13.52zM729.92 584.13l-10.82 13.52h-1.81l10.82-13.52zM734.11 584.13l-10.81 13.52h-1.82l10.82-13.52zM738.31 584.13l-10.82 13.52h-1.81l10.82-13.52zM742.5 584.13l-10.82 13.52h-1.81l10.82-13.52zM746.7 584.13l-10.82 13.52h-1.81l10.81-13.52zM750.89 584.13l-10.82 13.52h-1.81l10.82-13.52zM755.09 584.13l-10.82 13.52h-1.81l10.81-13.52zM576.94 613.84l-17.84 22.29h-2.63l20.47-25.58zM576.94 606.23L553 636.13h-2.63L575 605.35h1.93zM546.94 636.13h-2.63l24.62-30.78h2.63zM540.86 636.13h-2.63l24.62-30.78h2.63zM534.78 636.13h-2.63l24.62-30.78h2.62zM528.92 632.55l21.76-27.2h2.63l-24.39 30.49zM528.92 625c7.05-8.8 15.68-19.6 15.68-19.6h2.63l-18.31 22.89zM528.92 617.35l9.6-12h2.63l-12.23 15.28zM528.92 609.75c2.12-2.66 3.52-4.4 3.52-4.4h2.63l-6.15 7.65zM528.92 605.35h.08l-.07.08zM837.72 635.09v-27.56H583.79v4.19h249.75v19.18H730.23v4.19zM528.92 599h308.35v3.34H528.92zM673.72 597.82v-13.71h-9.73l-13.71 13.71z"/></g></g></svg>